<svg xmlns="http://www.w3.org/2000/svg" width="69.546" height="69.546" viewBox="0 0 69.546 69.546">
  <g id="floor_bt_here" transform="translate(-1579.688 -670.409)">
    <path id="패스_2086" data-name="패스 2086" d="M34.773,0A34.773,34.773,0,1,1,0,34.773,34.773,34.773,0,0,1,34.773,0Z" transform="translate(1579.688 670.409)" fill="#fff"/>
    <g id="floor_minimap_here" transform="translate(1602.481 688.683)">
      <g id="그룹_224" data-name="그룹 224" transform="translate(0.253 0)">
        <path id="패스_426" data-name="패스 426" d="M11.98,0A11.98,11.98,0,0,0,0,11.984c0,5.908,6.483,13.148,9.855,18.544l2.125,3.4,2.125-3.4c.175-.281.359-.566.722-1.117,3.307-5.029,9.133-11.826,9.133-17.427A11.98,11.98,0,0,0,11.98,0" transform="translate(0 -0.004)" fill="#212121" fill-rule="evenodd"/>
      </g>
      <circle id="타원_57" data-name="타원 57" cx="3.884" cy="3.884" r="3.884" transform="translate(8.253 8.193)" fill="#fcfcfc"/>
    </g>
  </g>
</svg>
