<svg xmlns="http://www.w3.org/2000/svg" width="69.546" height="69.546" viewBox="0 0 69.546 69.546">
  <g id="floor_bt_here_o" transform="translate(-1579.688 -670.409)">
    <path id="패스_2086" data-name="패스 2086" d="M34.773,0A34.773,34.773,0,1,1,0,34.773,34.773,34.773,0,0,1,34.773,0Z" transform="translate(1579.688 670.409)" fill="#d2d1d8"/>
    <g id="floor_minimap_here" transform="translate(1602.481 688.683)">
      <path id="빼기_17" data-name="빼기 17" d="M3335.733-9069.76h0l-2.124-3.4c-.834-1.335-1.841-2.757-2.906-4.262-3.257-4.605-6.948-9.824-6.948-14.281a11.908,11.908,0,0,1,3.508-8.473,11.9,11.9,0,0,1,8.471-3.509,11.9,11.9,0,0,1,8.472,3.509,11.9,11.9,0,0,1,3.509,8.473c0,4.465-3.655,9.623-6.88,14.174-.813,1.146-1.581,2.229-2.254,3.254-.354.533-.538.822-.722,1.115l-2.124,3.4Zm-.1-25.73a3.888,3.888,0,0,0-3.884,3.884,3.888,3.888,0,0,0,3.884,3.884,3.888,3.888,0,0,0,3.884-3.884A3.888,3.888,0,0,0,3335.637-9095.49Z" transform="translate(-3323.5 9103.683)" fill="#212121"/>
    </g>
  </g>
</svg>
