<svg xmlns="http://www.w3.org/2000/svg" width="45" height="45" viewBox="0 0 45 45">
  <g id="floor_bt_elevator_o" transform="translate(-1706 -339)">
    <circle id="타원_135" data-name="타원 135" cx="22.5" cy="22.5" r="22.5" transform="translate(1706 339)" fill="#d2d1d8"/>
    <path id="패스_3534" data-name="패스 3534" d="M363.43,1671.609h-1.112v-12.481h3.062v7.508l-1.271,4.974h0v8.03h-.679Zm.679-15.17h-.679v1.742h.679Zm6.239,0h-.668v1.742h.668Zm-.672,23.2h.672V1671.6h2.165l-1.263-4.991v-7.486h-2.311l-.749,2.281v10.2h1.487Zm7.2-25.7v28.206H356.882v-28.206Zm-1.168,1.152H358.046v25.89h17.659Zm-12-4.255,1.224,1.46.893-.742-2.118-2.513-2.114,2.513.886.742Zm8.468-.806-.89-.741-1.228,1.464-1.224-1.464-.886.741,2.11,2.521Z" transform="translate(1361.622 -1305.04)" fill="#212121"/>
  </g>
</svg>
