<svg xmlns="http://www.w3.org/2000/svg" width="25" height="25" viewBox="0 0 25 25">
  <g id="map_ico_exit" transform="translate(1.065 1.066)">
    <rect id="사각형_950" data-name="사각형 950" width="25" height="25" rx="3" transform="translate(-1.065 -1.066)" fill="#646464"/>
    <g id="그룹_664" data-name="그룹 664" transform="translate(2.292 4.252)">
      <path id="패스_808" data-name="패스 808" d="M337.695,148.166h-6.852a.4.4,0,0,1-.4-.4v-5.146a.4.4,0,1,1,.8,0v4.748H337.3V145.5a1.86,1.86,0,0,1,.5-1.335c.183-.241.544-.663.893-1.072.21-.246.409-.479.534-.632.228-.279.386-1.1.037-1.423-.542-.506-2.932-2.817-3.034-2.916a.4.4,0,0,1,0-.577,2.725,2.725,0,0,1,2.683-.58,5.53,5.53,0,0,1,2.254,1.267.4.4,0,1,1-.54.586c-.842-.775-2.389-1.579-3.51-.944.7.674,2.271,2.192,2.687,2.581a2.017,2.017,0,0,1,.037,2.51c-.13.16-.332.4-.545.645-.326.381-.695.813-.865,1.038a1.109,1.109,0,0,0-.34.851v2.269A.4.4,0,0,1,337.695,148.166Z" transform="translate(-327.276 -133.26)" fill="#fff"/>
      <path id="패스_809" data-name="패스 809" d="M334.576,137.551a1.566,1.566,0,1,1,1.567-1.566A1.567,1.567,0,0,1,334.576,137.551Zm0-2.336a.769.769,0,1,0,.769.77A.77.77,0,0,0,334.576,135.216Z" transform="translate(-327.998 -132.578)" fill="#fff"/>
      <path id="패스_810" data-name="패스 810" d="M337.984,141.531a.4.4,0,0,1-.279-.114l-2.925-2.869a4.561,4.561,0,0,1-3.938,1.558.4.4,0,0,1-.4-.4v-7.869a.4.4,0,0,1,.4-.4h7.793a.4.4,0,0,1,.4.4v2.434a.4.4,0,1,1-.8,0v-2.035h-7V139.3a3.553,3.553,0,0,0,3.176-1.585.4.4,0,0,1,.6-.052l3.244,3.182a.4.4,0,0,1-.279.683Z" transform="translate(-327.276 -131.74)" fill="#fff"/>
      <path id="패스_811" data-name="패스 811" d="M345.169,148.174q-.13,0-.262-.011a4.083,4.083,0,0,1-2.243-.972.4.4,0,0,1,.512-.611,2.56,2.56,0,0,0,3.628.037.4.4,0,1,1,.589.537A2.948,2.948,0,0,1,345.169,148.174Z" transform="translate(-330.673 -135.972)" fill="#fff"/>
    </g>
  </g>
</svg>
