<svg xmlns="http://www.w3.org/2000/svg" width="25" height="25" viewBox="0 0 25 25">
  <g id="map_ico_escalator" transform="translate(1.065 1.066)">
    <rect id="사각형_950" data-name="사각형 950" width="25" height="25" rx="3" transform="translate(-1.065 -1.066)" fill="#646464"/>
    <path id="합치기_23" data-name="합치기 23" d="M-5943.506,4023.416a2.054,2.054,0,0,1-2.06-2.043,2.054,2.054,0,0,1,2.06-2.043h2.145l1.074-.9v-6.1c-.247.167-.5.589-.5,1.658a12.8,12.8,0,0,0,.188,2.576.407.407,0,0,1-.3.488.408.408,0,0,1-.49-.3,13.191,13.191,0,0,1-.209-2.763c0-2.243,1.079-2.577,1.721-2.577a.406.406,0,0,1,.408.4v5.926l2.017-1.7v-4.229a.406.406,0,0,1,.408-.4c.642,0,1.72.335,1.72,2.577,0,.049,0,.14,0,.25v.014l1.046-.881a2.071,2.071,0,0,1,1.34-.49h2.906a2.052,2.052,0,0,1,2.057,2.042,2.053,2.053,0,0,1-2.057,2.045h-2.146l-1.008.848a.412.412,0,0,1-.576-.048.4.4,0,0,1,.048-.572l1.123-.943a.411.411,0,0,1,.264-.1h2.3a1.238,1.238,0,0,0,1.24-1.233,1.237,1.237,0,0,0-1.24-1.232h-2.906a1.254,1.254,0,0,0-.811.3l-1.7,1.43a.346.346,0,0,1-.044.037l-5.455,4.592a.411.411,0,0,1-.264.095h-2.294a1.24,1.24,0,0,0-1.242,1.234,1.24,1.24,0,0,0,1.242,1.233h2.906a1.24,1.24,0,0,0,.808-.3l4.677-3.936a.41.41,0,0,1,.575.048.4.4,0,0,1-.046.571l-4.675,3.934a2.058,2.058,0,0,1-1.338.492Zm6.868-8.062.5-.418c0-.194,0-.485,0-.7v-.251a2.571,2.571,0,0,0-.311-1.469.728.728,0,0,0-.185-.186Zm-3.31-5.947a1.481,1.481,0,0,1,1.485-1.473,1.481,1.481,0,0,1,1.484,1.473,1.48,1.48,0,0,1-1.484,1.473A1.48,1.48,0,0,1-5939.948,4009.407Zm.817,0a.666.666,0,0,0,.668.663.666.666,0,0,0,.667-.663.666.666,0,0,0-.667-.662A.666.666,0,0,0-5939.13,4009.407Z" transform="translate(5948.205 -4004.241)" fill="#fff"/>
  </g>
</svg>
