<svg xmlns="http://www.w3.org/2000/svg" width="25" height="25" viewBox="0 0 25 25">
  <g id="map_ico_elevator" transform="translate(1.065 1.066)">
    <rect id="사각형_950" data-name="사각형 950" width="25" height="25" rx="3" transform="translate(-1.065 -1.066)" fill="#646464"/>
    <g id="그룹_1434" data-name="그룹 1434" transform="translate(4.251 2.108)">
      <path id="패스_794" data-name="패스 794" d="M73.645,224.727a1.109,1.109,0,1,1-1.108,1.109A1.11,1.11,0,0,1,73.645,224.727Zm0,1.514a.405.405,0,1,0-.4-.405A.406.406,0,0,0,73.645,226.241Z" transform="translate(-63.766 -218.781)" fill="#fff"/>
      <path id="패스_795" data-name="패스 795" d="M74.431,236.192a.352.352,0,0,1-.352-.352v-4.2a.352.352,0,0,1,.352-.352h.132a.4.4,0,0,0,.093-.009.37.37,0,0,0,.007-.079v-3.333a.352.352,0,0,1,.352-.352c.68,0,1.407.5,1.407,1.892a9.59,9.59,0,0,1-.147,1.972.352.352,0,0,1-.686-.16h0a9.274,9.274,0,0,0,.129-1.812,1.331,1.331,0,0,0-.351-1.071V231.2a.706.706,0,0,1-.584.772v3.867A.352.352,0,0,1,74.431,236.192Z" transform="translate(-64.004 -219.21)" fill="#fff"/>
      <path id="패스_796" data-name="패스 796" d="M72.84,236.192a.352.352,0,0,1-.352-.352v-3.867a.706.706,0,0,1-.584-.772v-2.864a1.331,1.331,0,0,0-.351,1.071,9.276,9.276,0,0,0,.129,1.812.352.352,0,0,1-.686.16,9.591,9.591,0,0,1-.147-1.972c0-1.395.727-1.892,1.407-1.892a.352.352,0,0,1,.352.352V231.2a.369.369,0,0,0,.007.079.4.4,0,0,0,.092.008h.133a.352.352,0,0,1,.352.352v4.2A.352.352,0,0,1,72.84,236.192Z" transform="translate(-63.506 -219.21)" fill="#fff"/>
      <path id="패스_797" data-name="패스 797" d="M67.43,224.727a1.109,1.109,0,1,1-1.109,1.109A1.11,1.11,0,0,1,67.43,224.727Zm0,1.514a.405.405,0,1,0-.405-.405A.406.406,0,0,0,67.43,226.241Z" transform="translate(-62.809 -218.781)" fill="#fff"/>
      <path id="패스_798" data-name="패스 798" d="M68.214,236.192a.352.352,0,0,1-.352-.352v-4.2a.352.352,0,0,1,.352-.352h.133a.4.4,0,0,0,.092-.008.372.372,0,0,0,.007-.08v-3.333a.352.352,0,0,1,.352-.352c.68,0,1.407.5,1.407,1.892a9.537,9.537,0,0,1-.148,1.973.352.352,0,0,1-.685-.162,9.275,9.275,0,0,0,.129-1.811,1.331,1.331,0,0,0-.351-1.071V231.2a.706.706,0,0,1-.584.772v3.867A.352.352,0,0,1,68.214,236.192Z" transform="translate(-63.046 -219.21)" fill="#fff"/>
      <path id="패스_799" data-name="패스 799" d="M66.623,236.192a.352.352,0,0,1-.352-.352v-3.867a.706.706,0,0,1-.582-.772v-2.864a1.329,1.329,0,0,0-.352,1.072,9.22,9.22,0,0,0,.13,1.812.352.352,0,0,1-.685.161,9.536,9.536,0,0,1-.148-1.973c0-1.395.727-1.892,1.408-1.892a.352.352,0,0,1,.352.352V231.2a.377.377,0,0,0,.007.08.4.4,0,0,0,.091.008h.132a.352.352,0,0,1,.352.352v4.2A.352.352,0,0,1,66.623,236.192Z" transform="translate(-62.549 -219.21)" fill="#fff"/>
      <path id="패스_800" data-name="패스 800" d="M76.181,220.7a.468.468,0,0,1-.332-.137l-1.728-1.728-1.728,1.728a.469.469,0,0,1-.663-.663l2.06-2.06a.469.469,0,0,1,.664,0l2.06,2.06a.469.469,0,0,1-.332.8Z" transform="translate(-63.621 -217.699)" fill="#fff"/>
      <path id="패스_801" data-name="패스 801" d="M66.282,220.7a.469.469,0,0,1-.332-.137L63.889,218.5a.469.469,0,1,1,.663-.663l1.729,1.729,1.728-1.729a.469.469,0,1,1,.664.663l-2.06,2.061A.469.469,0,0,1,66.282,220.7Z" transform="translate(-62.414 -217.699)" fill="#fff"/>
      <path id="사각형_647" data-name="사각형 647" d="M.677-.555h11.9A1.233,1.233,0,0,1,13.813.677V12.583a1.232,1.232,0,0,1-1.231,1.231H.676A1.232,1.232,0,0,1-.555,12.583V.677A1.233,1.233,0,0,1,.677-.555Zm11.905,13.43a.293.293,0,0,0,.293-.293V.677a.294.294,0,0,0-.293-.293H.677A.293.293,0,0,0,.384.677V12.583a.293.293,0,0,0,.293.293Z" transform="translate(0.555 4.839)" fill="#fff"/>
    </g>
  </g>
</svg>
