<svg xmlns="http://www.w3.org/2000/svg" width="25" height="25" viewBox="0 0 25 25">
  <g id="map_ico_toilet" transform="translate(1.065 1.066)">
    <rect id="사각형_950" data-name="사각형 950" width="25" height="25" rx="3" transform="translate(-1.065 -1.066)" fill="#646464"/>
    <g id="그룹_1419" data-name="그룹 1419" transform="translate(4.217 4.058)">
      <path id="패스_792" data-name="패스 792" d="M169.461,172.6A1.46,1.46,0,1,1,168,174.06,1.462,1.462,0,0,1,169.461,172.6Zm0,2.2a.735.735,0,1,0-.733-.736A.736.736,0,0,0,169.461,174.8Z" transform="translate(-166.315 -172.6)" fill="#fff"/>
      <path id="패스_793" data-name="패스 793" d="M170.958,190.413a.363.363,0,0,1-.363-.363v-6.09a.363.363,0,0,1,.363-.363h.192c.179,0,.232-.038.244-.05s.047-.059.047-.225v-4.831a.363.363,0,0,1,.363-.363,1.454,1.454,0,0,1,1.244.64,3.4,3.4,0,0,1,.455,1.954,13.833,13.833,0,0,1-.208,2.827.363.363,0,0,1-.706-.165,13.664,13.664,0,0,0,.189-2.661,2.829,2.829,0,0,0-.326-1.54.742.742,0,0,0-.286-.254v4.393a.888.888,0,0,1-.846.992v5.736A.363.363,0,0,1,170.958,190.413Z" transform="translate(-167.212 -174.513)" fill="#fff"/>
      <path id="패스_794" data-name="패스 794" d="M167.969,190.413a.363.363,0,0,1-.363-.363v-5.736a.888.888,0,0,1-.846-.992v-4.393a.743.743,0,0,0-.286.254,2.826,2.826,0,0,0-.326,1.54,13.421,13.421,0,0,0,.192,2.661.363.363,0,0,1-.706.167,13.663,13.663,0,0,1-.211-2.828,3.4,3.4,0,0,1,.456-1.954,1.455,1.455,0,0,1,1.244-.64.363.363,0,0,1,.363.363v4.831c0,.226.025.275.291.275h.192a.363.363,0,0,1,.363.363v6.09A.363.363,0,0,1,167.969,190.413Z" transform="translate(-165.423 -174.513)" fill="#fff"/>
      <path id="패스_795" data-name="패스 795" d="M181.35,172.6a1.456,1.456,0,1,1-1.454,1.456A1.457,1.457,0,0,1,181.35,172.6Zm0,2.187a.731.731,0,1,0-.729-.731A.731.731,0,0,0,181.35,174.787Z" transform="translate(-170.429 -172.6)" fill="#fff"/>
      <path id="패스_796" data-name="패스 796" d="M182.855,190.219a.363.363,0,0,1-.363-.363v-6.124a.363.363,0,0,1,.363-.363h1.234l-1.482-5.3a.363.363,0,0,1,.265-.451c.718-.171,1.7.026,2.272,1.936a13.794,13.794,0,0,1,.617,2.856.363.363,0,1,1-.724.042,13.531,13.531,0,0,0-.588-2.689c-.321-1.065-.718-1.378-1.021-1.451l1.488,5.321a.363.363,0,0,1-.349.46h-1.35v5.762A.363.363,0,0,1,182.855,190.219Z" transform="translate(-171.327 -174.319)" fill="#fff"/>
      <path id="패스_797" data-name="패스 797" d="M179.654,190.219a.363.363,0,0,1-.363-.363v-5.762h-1.348a.363.363,0,0,1-.349-.46l1.488-5.321c-.3.074-.7.386-1.022,1.451a13.347,13.347,0,0,0-.586,2.689.363.363,0,0,1-.724-.041,13.663,13.663,0,0,1,.616-2.857c.575-1.91,1.553-2.107,2.272-1.936a.363.363,0,0,1,.265.451l-1.482,5.3h1.233a.363.363,0,0,1,.363.363v6.124A.363.363,0,0,1,179.654,190.219Z" transform="translate(-169.34 -174.32)" fill="#fff"/>
    </g>
  </g>
</svg>
