<svg xmlns="http://www.w3.org/2000/svg" width="100" height="100" viewBox="0 0 100 100">
  <g id="facility_list_img_ele" transform="translate(-40.826 -38.565)">
    <path id="facility_list" d="M0,0H100V100H0Z" transform="translate(40.826 38.565)" fill="none"/>
    <path id="패스_3534" data-name="패스 3534" d="M371.275,1698.647h-2.443v-27.434h6.73v16.5l-2.794,10.932h0V1716.3h-1.493Zm1.493-33.344h-1.493v3.829h1.493Zm13.713,0h-1.468v3.829h1.468Zm-1.476,50.993h1.476v-17.658h4.758l-2.777-10.97v-16.455h-5.079l-1.647,5.014v22.42h3.269Zm15.818-56.491v62H356.882v-62Zm-2.567,2.532H359.441v56.906h38.816Zm-26.382-9.353,2.691,3.209,1.964-1.63-4.655-5.523-4.647,5.523,1.947,1.63Zm18.612-1.772-1.955-1.63-2.7,3.217-2.691-3.217-1.947,1.63,4.638,5.541Z" transform="translate(-289.027 -1598.857)" fill="#0f0f0f"/>
  </g>
</svg>
