<svg xmlns="http://www.w3.org/2000/svg" width="65" height="65" viewBox="0 0 65 65">
  <g id="fnb_category_bt_4_o" transform="translate(-1049 -669)">
    <rect id="사각형_1804" data-name="사각형 1804" width="65" height="65" rx="5" transform="translate(1049 669)" fill="#333"/>
    <g id="그룹_1673" data-name="그룹 1673" transform="translate(1054.314 681.306)">
      <line id="선_42" data-name="선 42" x2="13.22" transform="translate(32.234 20.425)" fill="none" stroke="#fff" stroke-linecap="round" stroke-linejoin="round" stroke-width="1.5"/>
      <g id="그룹_89" data-name="그룹 89" transform="translate(0 0)">
        <line id="선_43" data-name="선 43" x2="19.832" transform="translate(28.543 15.669)" fill="none" stroke="#fff" stroke-linecap="round" stroke-linejoin="round" stroke-width="1.5"/>
        <path id="패스_120" data-name="패스 120" d="M18.942,51.373H4.7a3.633,3.633,0,0,1-3.607-3.2L.844,46.065a.693.693,0,0,1,.688-.775h20.58a.693.693,0,0,1,.688.775l-.252,2.107A3.632,3.632,0,0,1,18.942,51.373Z" transform="translate(4.004 -16.609)" fill="none" stroke="#fff" stroke-linecap="round" stroke-linejoin="round" stroke-width="1.5"/>
        <line id="선_44" data-name="선 44" x2="20.375" transform="translate(5.639 25.696)" fill="none" stroke="#fff" stroke-linecap="round" stroke-linejoin="round" stroke-width="1.5"/>
        <path id="패스_121" data-name="패스 121" d="M21.958,28.4a.824.824,0,0,0,.816-1.043c-1.2-4.187-5.646-7.3-10.956-7.3S2.074,23.157.869,27.332a.824.824,0,0,0,.813,1.044Z" transform="translate(4.006 -5.6)" fill="none" stroke="#fff" stroke-linecap="round" stroke-linejoin="round" stroke-width="1.5"/>
        <path id="패스_122" data-name="패스 122" d="M28.808,29.448a.711.711,0,1,0-.711-.711.711.711,0,0,0,.711.711" transform="translate(-7.89 -9.076)" fill="#fff"/>
        <path id="패스_123" data-name="패스 123" d="M23.556,25.789a.711.711,0,1,0-.711-.712.711.711,0,0,0,.711.712" transform="translate(-5.598 -7.479)" fill="#fff"/>
        <path id="패스_124" data-name="패스 124" d="M15.992,25.789a.711.711,0,1,0-.711-.712.711.711,0,0,0,.711.712" transform="translate(-2.297 -7.479)" fill="#fff"/>
        <path id="패스_125" data-name="패스 125" d="M19.89,29.448a.711.711,0,1,0-.711-.711.711.711,0,0,0,.711.711" transform="translate(-3.998 -9.076)" fill="#fff"/>
        <path id="패스_126" data-name="패스 126" d="M10.74,29.448a.711.711,0,1,0-.711-.711.711.711,0,0,0,.711.711" transform="translate(-0.006 -9.076)" fill="#fff"/>
        <path id="패스_127" data-name="패스 127" d="M62.459,15.9a8.8,8.8,0,0,0-17.548,0" transform="translate(-15.227 -0.229)" fill="none" stroke="#fff" stroke-linecap="round" stroke-linejoin="round" stroke-width="1.5"/>
        <path id="패스_128" data-name="패스 128" d="M62.283,22.206l-2,17.256A2.079,2.079,0,0,1,58.215,41.3H50.362A2.079,2.079,0,0,1,48.3,39.462l-2-17.256" transform="translate(-15.83 -6.537)" fill="none" stroke="#fff" stroke-linecap="round" stroke-linejoin="round" stroke-width="1.5"/>
        <path id="패스_129" data-name="패스 129" d="M66.936.837H62.983l-.71,3.408" transform="translate(-22.802 2.788)" fill="none" stroke="#fff" stroke-linecap="round" stroke-linejoin="round" stroke-width="1.5"/>
        <line id="선_45" data-name="선 45" x1="2.115" y2="10.158" transform="translate(36.788 9.76)" fill="none" stroke="#fff" stroke-linecap="round" stroke-linejoin="round" stroke-width="1.5"/>
      </g>
    </g>
  </g>
</svg>
