<svg xmlns="http://www.w3.org/2000/svg" width="65" height="65" viewBox="0 0 65 65">
  <g id="fnb_category_bt_5_o" transform="translate(-1171 -669)">
    <rect id="사각형_1805" data-name="사각형 1805" width="65" height="65" rx="5" transform="translate(1171 669)" fill="#333"/>
    <path id="패스_3603" data-name="패스 3603" d="M15.709,22.782a10.651,10.651,0,0,0,4.834-11.069L18.456,0H2.242L.155,11.713A10.651,10.651,0,0,0,4.989,22.782a10.392,10.392,0,0,0,4.556,1.446v7.778h-7.3v1.609H18.456V32.006h-7.3V24.228a10.392,10.392,0,0,0,4.556-1.446m-5.36-.132A8.833,8.833,0,0,1,5.815,21.4a8.456,8.456,0,0,1-2.091-1.76A8.548,8.548,0,0,1,2.341,17.39a9.928,9.928,0,0,1-.6-5.409L3.589,1.609h13.52l1.848,10.372a9.929,9.929,0,0,1-.6,5.409,8.548,8.548,0,0,1-1.383,2.252,8.457,8.457,0,0,1-2.091,1.76,8.833,8.833,0,0,1-4.534,1.248" transform="translate(1193.151 684.445)" fill="#fff"/>
    <path id="패스_3606" data-name="패스 3606" d="M1.931,10.223h18.3" transform="translate(1192.421 683.445)" fill="none" stroke="#fff" stroke-width="1.8"/>
  </g>
</svg>
