<svg xmlns="http://www.w3.org/2000/svg" width="65" height="65" viewBox="0 0 65 65">
  <g id="fnb_category_bt_2" transform="translate(-806 -669)">
    <rect id="사각형_1802" data-name="사각형 1802" width="65" height="65" rx="5" transform="translate(806 669)" fill="#d8d6dd"/>
    <g id="그룹_1845" data-name="그룹 1845" transform="translate(821.264 683.94)">
      <path id="패스_115" data-name="패스 115" d="M523.32,106.169a.778.778,0,0,0,.758.6.758.758,0,0,0,.176-.02l14.163-3.274a.778.778,0,1,0-.35-1.517L523.9,105.235A.778.778,0,0,0,523.32,106.169Z" transform="translate(-504.549 -97.838)" fill="#333"/>
      <path id="패스_116" data-name="패스 116" d="M478.42,107.883a.778.778,0,1,0,.351,1.517l4.512-1.043a.032.032,0,0,1,.038.011,4.3,4.3,0,0,1,.51,1.991,3.962,3.962,0,0,1-.288,1.479,3.426,3.426,0,0,1-.192.4c-.025.044-.044.075-.056.093s-.015.023-.023.034a.779.779,0,0,0,1.279.888s0,0,0,0,0,0,0,0a5.271,5.271,0,0,0,.831-2.887,5.913,5.913,0,0,0-.788-2.9,4.344,4.344,0,0,1-.592-2.144,3.948,3.948,0,0,1,.288-1.478,3.429,3.429,0,0,1,.193-.4c.025-.044.045-.076.056-.094l.011-.017a1.756,1.756,0,0,1,1.9-.671c.014,0,.026.016.019.029a5.44,5.44,0,0,0-.675,2.632,5.911,5.911,0,0,0,.789,2.9,4.354,4.354,0,0,1,.591,2.143,3.961,3.961,0,0,1-.288,1.479,3.349,3.349,0,0,1-.192.4c-.025.044-.044.076-.056.094l-.009.014a.779.779,0,0,0,1.269.9,5.267,5.267,0,0,0,.834-2.891,5.918,5.918,0,0,0-.788-2.9,4.346,4.346,0,0,1-.592-2.144,3.965,3.965,0,0,1,.288-1.479,3.456,3.456,0,0,1,.192-.4c.025-.044.045-.076.057-.094l.006-.009,0-.006s0,0,0-.006a1.757,1.757,0,0,1,1.429-.731,1.735,1.735,0,0,1,.465.064c.014,0,.026.016.019.029a5.437,5.437,0,0,0-.675,2.633,5.921,5.921,0,0,0,.789,2.9,4.344,4.344,0,0,1,.591,2.143,3.965,3.965,0,0,1-.288,1.479,3.392,3.392,0,0,1-.193.4c-.025.044-.044.076-.056.094l-.007.011s-.005.009,0,.006,0,.006-.006.008a.779.779,0,0,0,1.273.9s0,0,0,0,0,0,0,0a5.27,5.27,0,0,0,.831-2.887,5.912,5.912,0,0,0-.788-2.9,4.344,4.344,0,0,1-.592-2.144,3.957,3.957,0,0,1,.288-1.479,3.446,3.446,0,0,1,.192-.4c.025-.044.045-.076.056-.094l.01-.015a1.758,1.758,0,0,1,2.686-.21.778.778,0,0,0,1.112-1.09,3.338,3.338,0,0,0-.694-.541,3.316,3.316,0,0,0-3.322-.014.05.05,0,0,1-.049,0,3.314,3.314,0,0,0-3.3,0,.049.049,0,0,1-.048,0,3.316,3.316,0,0,0-4.349.953,5.258,5.258,0,0,0-.835,2.89,5.589,5.589,0,0,0,.223,1.558.026.026,0,0,1-.021.033Z" transform="translate(-473.229 -97.211)" fill="#333"/>
      <path id="패스_117" data-name="패스 117" d="M471.992,114.158a.778.778,0,0,0,.227-.034l4.794-1.464a.778.778,0,1,0-.454-1.489l-4.794,1.463a.779.779,0,0,0,.227,1.523Z" transform="translate(-468.681 -104.171)" fill="#333"/>
      <path id="패스_118" data-name="패스 118" d="M532.788,92.972a.782.782,0,0,0,.227-.034l8.683-2.651a.778.778,0,1,0-.454-1.489l-8.683,2.651a.778.778,0,0,0,.227,1.523Z" transform="translate(-510.547 -88.764)" fill="#333"/>
      <path id="패스_119" data-name="패스 119" d="M492.91,143.63l-.008-.008a.775.775,0,0,0-.584-.265h-24a.774.774,0,0,0-.585.266l-.008.007-4.458,5.228a.778.778,0,0,0,.593,1.284h3.3a.778.778,0,0,0,0-1.557H465.57c-.01,0-.011-.014,0-.022l2.329-2.732a.015.015,0,0,1,.026.006l3.1,13.042a.78.78,0,0,0,.758.6h17.081a.78.78,0,0,0,.757-.6l3.1-13.042a.015.015,0,0,1,.026-.006l2.329,2.732c.007.008.008.022,0,.022h-1.59a.778.778,0,1,0,0,1.557h3.3a.778.778,0,0,0,.593-1.284Zm-2.448,1.284a.012.012,0,0,1,.009.021l-3.482,3.628a.068.068,0,0,1-.049.021H473.7a.069.069,0,0,1-.05-.021l-3.481-3.628a.012.012,0,0,1,.009-.021Zm-2.213,12.977a.037.037,0,0,1-.036.028H472.421a.037.037,0,0,1-.036-.028l-2.643-11.124a.008.008,0,0,1,.014-.008l3.016,3.143a.782.782,0,0,0,.562.239H487.3a.781.781,0,0,0,.561-.239l3.016-3.143a.008.008,0,0,1,.013.008Z" transform="translate(-463.082 -126.357)" fill="#333"/>
    </g>
  </g>
</svg>
