<svg xmlns="http://www.w3.org/2000/svg" width="65" height="65" viewBox="0 0 65 65">
  <g id="fnb_category_bt_1" transform="translate(-685 -669)">
    <rect id="사각형_1639" data-name="사각형 1639" width="65" height="65" rx="5" transform="translate(685 669)" fill="#d8d6dd"/>
    <path id="빼기_20" data-name="빼기 20" d="M-149.29-3754.32H-163.6a.524.524,0,0,1-.53-.515,2.969,2.969,0,0,1,.667-2.011c-3.444-1.547-5.5-3.226-6.657-5.443-1.28-2.446-1.384-5.492-1.384-8.931a.506.506,0,0,1,.139-.348h30.8a.721.721,0,0,1,.155.447c0,2.9-.11,5.708-1.432,8.255-1.336,2.572-3.707,4.53-7.464,6.162a3.1,3.1,0,0,1,.547,1.869A.524.524,0,0,1-149.29-3754.32Zm-13.194-1.951c-.148,0-.424.328-.535.921h13.151c-.112-.593-.387-.921-.535-.921h-12.081Zm-7.954-14.434c.011,2.819.118,5.754,1.267,7.95s3.4,3.88,7.278,5.451h11.333l.006,0c8.343-3.338,9.038-7.849,9.079-13.4h-28.962Zm2.487-2.757h-1.307a3.638,3.638,0,0,1,2.131-1.671,3.643,3.643,0,0,1,3.676-3.355,3.762,3.762,0,0,1,1.306.232,3.555,3.555,0,0,1,1.333-1.691,3.745,3.745,0,0,1,2.124-.65,3.758,3.758,0,0,1,2.894,1.366,3.722,3.722,0,0,1,2.78-1.23,3.7,3.7,0,0,1,3.356,2.1,3.737,3.737,0,0,1,.987-.131A3.654,3.654,0,0,1-145-3775.18a3.75,3.75,0,0,1,2.176,1.718h-1.314a2.313,2.313,0,0,0-1.445-.782.522.522,0,0,1-.472-.538c0-.038,0-.08,0-.129a2.588,2.588,0,0,0-2.621-2.547,2.661,2.661,0,0,0-1.084.229.54.54,0,0,1-.22.046.547.547,0,0,1-.225-.048.521.521,0,0,1-.286-.33,2.617,2.617,0,0,0-2.528-1.869,2.623,2.623,0,0,0-2.331,1.382.531.531,0,0,1-.473.28h-.012a.534.534,0,0,1-.47-.3,2.634,2.634,0,0,0-2.388-1.5,2.588,2.588,0,0,0-2.586,2.132.517.517,0,0,1-.3.385.545.545,0,0,1-.221.046.538.538,0,0,1-.278-.077,2.672,2.672,0,0,0-1.375-.378,2.588,2.588,0,0,0-2.621,2.547c0,.049,0,.1.006.154a.518.518,0,0,1-.437.537,2.624,2.624,0,0,0-1.445.758Z" transform="translate(873.456 4468.959)" fill="#333" stroke="#333" stroke-width="0.5"/>
  </g>
</svg>
