<svg xmlns="http://www.w3.org/2000/svg" width="55" height="55" viewBox="0 0 55 55">
  <g id="fnb_category_restaurant" transform="translate(-795 -804)">
    <rect id="사각형_627" data-name="사각형 627" width="55" height="55" rx="10" transform="translate(795 804)" fill="#fff" opacity="0.7"/>
    <path id="패스_703" data-name="패스 703" d="M4.893,28.393H2.463a.821.821,0,0,1-.821-.821V.821a.821.821,0,0,1,1.642,0V26.751h.788V.821a.821.821,0,0,1,1.642,0v26.75A.821.821,0,0,1,4.893,28.393Z" transform="translate(814.43 818.607)" fill="#414445"/>
    <path id="패스_704" data-name="패스 704" d="M3.253,12.756H.821A.821.821,0,0,1,0,11.935V.821a.821.821,0,1,1,1.642,0V11.113h1.61a.821.821,0,1,1,0,1.642Z" transform="translate(813.641 818.607)" fill="#414445"/>
    <path id="패스_705" data-name="패스 705" d="M13.555,0a.821.821,0,0,1,.821.821v26.75a.821.821,0,0,1-.821.821H11.122a.821.821,0,0,1-.821-.821V12.756H7.783a.821.821,0,0,1-.821-.821V5.9A5.334,5.334,0,0,1,10.338.7,8.845,8.845,0,0,1,13.555,0Zm-.821,26.75V1.714C11.322,1.922,8.6,2.734,8.6,5.9v5.213h2.518a.821.821,0,0,1,.821.821V26.751Z" transform="translate(816.988 818.607)" fill="#414445"/>
    <path id="패스_706" data-name="패스 706" d="M6.533,12.756H4.1a.821.821,0,1,1,0-1.642H5.712V.821a.821.821,0,0,1,1.642,0V11.935A.821.821,0,0,1,6.533,12.756Z" transform="translate(815.219 818.607)" fill="#414445"/>
  </g>
</svg>
