<svg xmlns="http://www.w3.org/2000/svg" width="65" height="65" viewBox="0 0 65 65">
  <g id="search_category_bt_5_o" transform="translate(11.825 15.098)">
    <rect id="사각형_1532" data-name="사각형 1532" width="65" height="65" rx="5" transform="translate(-11.825 -15.098)" fill="#333"/>
    <g id="그룹_1838" data-name="그룹 1838" transform="translate(-796.257 -1308.433)">
      <path id="패스_3632" data-name="패스 3632" d="M838.9,1338.245H799.582a2.877,2.877,0,0,1-2.035-.843,2.951,2.951,0,0,1-.821-2.583l.454-2.641c0-.022.007-.044.009-.065l1.085-9.529a.617.617,0,0,1,.029-.128,4.229,4.229,0,0,1,.755-1.279,3.547,3.547,0,0,1,2.77-1.293,3.01,3.01,0,0,1,2.4,1.318,5.276,5.276,0,0,1,.679,1.187,2.361,2.361,0,0,0,.664.664,4.652,4.652,0,0,0,2.617.711h.016a4.261,4.261,0,0,0,2.089-.765,9.126,9.126,0,0,0,1.08-.787c.123-.134.692-.756,1.34-1.418q.165-.169.315-.318a4.6,4.6,0,0,1-1.108-3.466,4.262,4.262,0,0,1,1.949-3.2.618.618,0,0,1,.675.047l16.344,12.424,10.686,3.383a3.717,3.717,0,0,1,2.232,1.938,3.637,3.637,0,0,1,.356,1.4,3.568,3.568,0,0,1-.239,1.478,6.953,6.953,0,0,1-3.131,3.25A3.7,3.7,0,0,1,838.9,1338.245Zm-39.4-15.443-1.077,9.451c-.005.045-.012.09-.019.135l-.454,2.641a1.716,1.716,0,0,0,.477,1.5,1.633,1.633,0,0,0,1.162.482H838.9a2.467,2.467,0,0,0,1.26-.346,5.794,5.794,0,0,0,2.611-2.635,2.363,2.363,0,0,0-.08-1.894,2.5,2.5,0,0,0-1.492-1.3l-10.788-3.415a.629.629,0,0,1-.187-.1l-16.06-12.208a3.052,3.052,0,0,0-.3.31,3.128,3.128,0,0,0-.718,1.712,3.221,3.221,0,0,0,.484,2.066,3.892,3.892,0,0,0,.289.41,5.128,5.128,0,0,1,.928-.729,3.378,3.378,0,0,1,2.637-.3,3.963,3.963,0,0,1,1.166.532l-.718,1,0,0a2.839,2.839,0,0,0-.817-.359,2.135,2.135,0,0,0-1.657.193,26.041,26.041,0,0,0-3.2,3.107.57.57,0,0,1-.046.046,10.113,10.113,0,0,1-1.271.933,5.36,5.36,0,0,1-2.741.952h-.027a6.785,6.785,0,0,1-2.045-.312,4.809,4.809,0,0,1-1.351-.681,3.287,3.287,0,0,1-.985-1.076.544.544,0,0,1-.027-.063c-.018-.047-.676-1.747-1.937-1.747a2.312,2.312,0,0,0-1.8.83A3.188,3.188,0,0,0,799.492,1322.8Z" transform="translate(-2.49 -1.286)" fill="#fff" stroke="#fff" stroke-width="0.2"/>
      <path id="패스_3633" data-name="패스 3633" d="M2252.852,1618.859a.617.617,0,0,1-.493-.988l2.3-3.054a.617.617,0,0,1,.987.742l-2.295,3.054A.618.618,0,0,1,2252.852,1618.859Z" transform="translate(-1435.587 -297.483)" fill="#fff" stroke="#fff" stroke-width="0.2"/>
      <path id="패스_3634" data-name="패스 3634" d="M2354.773,1696.269a.617.617,0,0,1-.492-.988l2.294-3.054a.617.617,0,0,1,.987.741l-2.3,3.054A.617.617,0,0,1,2354.773,1696.269Z" transform="translate(-1535.936 -373.699)" fill="#fff" stroke="#fff" stroke-width="0.2"/>
      <path id="패스_3635" data-name="패스 3635" d="M2456.693,1773.679a.617.617,0,0,1-.493-.988l2.3-3.054a.617.617,0,1,1,.986.741l-2.294,3.054A.617.617,0,0,1,2456.693,1773.679Z" transform="translate(-1636.283 -449.914)" fill="#fff" stroke="#fff" stroke-width="0.2"/>
      <path id="패스_3636" data-name="패스 3636" d="M2558.614,1851.088a.617.617,0,0,1-.493-.988l2.295-3.054a.617.617,0,1,1,.987.741l-2.295,3.054A.616.616,0,0,1,2558.614,1851.088Z" transform="translate(-1736.631 -526.13)" fill="#fff" stroke="#fff" stroke-width="0.2"/>
      <path id="패스_3637" data-name="패스 3637" d="M2660.534,1928.5a.617.617,0,0,1-.493-.988l2.295-3.054a.617.617,0,1,1,.987.741l-2.295,3.054A.616.616,0,0,1,2660.534,1928.5Z" transform="translate(-1836.979 -602.344)" fill="#fff" stroke="#fff" stroke-width="0.2"/>
      <path id="패스_3638" data-name="패스 3638" d="M867.907,2515.111H849.534a5.879,5.879,0,0,1-3.206-.948l-1.14-.739a4.648,4.648,0,0,0-2.534-.749h-19.82a.617.617,0,0,1,0-1.235h19.82a5.879,5.879,0,0,1,3.206.948l1.14.739a4.647,4.647,0,0,0,2.534.75h18.373a.617.617,0,1,1,0,1.234Z" transform="translate(-27.63 -1180.516)" fill="#fff" stroke="#fff" stroke-width="0.2"/>
      <path id="패스_3639" data-name="패스 3639" d="M1017.157,2670.654h-4a.617.617,0,1,1,0-1.234h4a.617.617,0,1,1,0,1.234Z" transform="translate(-215.016 -1336.059)" fill="#fff" stroke="#fff" stroke-width="0.2"/>
    </g>
  </g>
</svg>
