<svg xmlns="http://www.w3.org/2000/svg" width="55" height="55" viewBox="0 0 55 55">
  <g id="store_category_kids" transform="translate(-1122 -774)">
    <rect id="사각형_662" data-name="사각형 662" width="55" height="55" rx="10" transform="translate(1122 774)" fill="#fcfcfc"/>
    <path id="패스_3110" data-name="패스 3110" d="M45.218,106.8a11.854,11.854,0,0,1-3.45-.626l-.286-.082a.594.594,0,1,1,.328-1.142l.289.083a10.931,10.931,0,0,0,3.119.579,12.3,12.3,0,0,0,9.836-4.718.594.594,0,0,1,.949.716A13.5,13.5,0,0,1,45.218,106.8" transform="translate(1095.984 694.901)" fill="#414445" stroke="#414445" stroke-width="0.3"/>
    <path id="패스_3111" data-name="패스 3111" d="M228.286,106.087a13.548,13.548,0,0,1-10.166-4.437.594.594,0,1,1,.889-.789,12.359,12.359,0,0,0,9.278,4.037c.121,0,.241,0,.36-.008l.064,0a.594.594,0,1,1,.037,1.188l-.063,0c-.133,0-.265.008-.4.008" transform="translate(932.948 694.899)" fill="#414445" stroke="#414445" stroke-width="0.3"/>
    <path id="패스_3112" data-name="패스 3112" d="M161.228,278.5a5.011,5.011,0,0,1-3.3-1.106.594.594,0,1,1,.8-.88,4.328,4.328,0,0,0,5,0,.594.594,0,0,1,.8.88,5.012,5.012,0,0,1-3.3,1.106" transform="translate(988.46 532.988)" fill="#414445" stroke="#414445" stroke-width="0.3"/>
    <path id="패스_3113" data-name="패스 3113" d="M68.45,252.49a12.108,12.108,0,0,1-11.233-7.717.594.594,0,1,1,1.109-.426,10.845,10.845,0,0,0,20.25-.008.594.594,0,1,1,1.11.426A12.106,12.106,0,0,1,68.45,252.49" transform="translate(1081.125 562.847)" fill="#414445" stroke="#414445" stroke-width="0.3"/>
    <path id="패스_3114" data-name="패스 3114" d="M41.614,13.356a.594.594,0,0,1-.594-.589v-.034c0-.026,0-.053,0-.08a12.654,12.654,0,1,1,25.308,0c0,.007,0,.031,0,.039a.594.594,0,0,1-1.189-.006c0-.007,0-.031,0-.039a11.465,11.465,0,0,0-22.931.006l0,.1a.594.594,0,0,1-.589.6Z" transform="translate(1096.017 787.662)" fill="#414445" stroke="#414445" stroke-width="0.3"/>
    <path id="패스_3115" data-name="패스 3115" d="M5.081,162.1H5.057A4.928,4.928,0,0,1,0,157.257a3.129,3.129,0,0,1,3.084-3.43,3.421,3.421,0,0,1,.886.118.594.594,0,0,1-.307,1.148,2.238,2.238,0,0,0-.578-.077,1.992,1.992,0,0,0-1.9,2.242A3.779,3.779,0,0,0,5.1,160.907a.594.594,0,0,1-.024,1.188" transform="translate(1133.815 645.906)" fill="#414445" stroke="#414445" stroke-width="0.3"/>
    <path id="패스_3116" data-name="패스 3116" d="M329.992,162.086a.594.594,0,0,1-.037-1.187,3.715,3.715,0,0,0,3.778-3.643,1.993,1.993,0,0,0-1.9-2.242,2.213,2.213,0,0,0-.279.018.594.594,0,0,1-.15-1.179,3.413,3.413,0,0,1,.429-.028,3.129,3.129,0,0,1,3.084,3.43,4.92,4.92,0,0,1-4.891,4.829h-.038" transform="translate(830.263 645.907)" fill="#414445" stroke="#414445" stroke-width="0.3"/>
    <path id="패스_3117" data-name="패스 3117" d="M261.726,194.508a.891.891,0,0,1-.891-.891v-1.2a.891.891,0,0,1,1.783,0v1.2a.891.891,0,0,1-.891.891" transform="translate(893.447 611.168)" fill="#414445" stroke="#414445" stroke-width="0.3"/>
    <path id="패스_3118" data-name="패스 3118" d="M119.061,194.508a.891.891,0,0,1-.891-.891v-1.2a.891.891,0,0,1,1.783,0v1.2a.891.891,0,0,1-.891.891" transform="translate(1024.917 611.168)" fill="#414445" stroke="#414445" stroke-width="0.3"/>
  </g>
</svg>
