<svg xmlns="http://www.w3.org/2000/svg" width="65" height="65" viewBox="0 0 65 65">
  <g id="search_category_bt_2_o" transform="translate(-180.983 -1033.983)">
    <rect id="사각형_1531" data-name="사각형 1531" width="65" height="65" rx="5" transform="translate(180.983 1033.983)" fill="#333"/>
    <path id="패스_3261" data-name="패스 3261" d="M199.06,1128h-3.393s-3.667.214-3.667,19.409h31.761c0-19.2-3.667-19.409-3.667-19.409h-3.7" transform="translate(5.604 -67.045)" fill="#333" stroke="#fff" stroke-linecap="round" stroke-linejoin="round" stroke-width="1.33"/>
    <path id="패스_3641" data-name="패스 3641" d="M12.008,0H0" transform="translate(207.345 1060.955)" fill="none" stroke="#fff" stroke-linecap="round" stroke-width="1.33"/>
    <path id="패스_3262" data-name="패스 3262" d="M237.561,1056.491c.1-2.662.54-6.765,2.336-8.574a4.42,4.42,0,0,1,3.307-1.365,4.644,4.644,0,0,1,3.448,1.4c3.227,3.233,3.005,10.714,3,10.788a9.869,9.869,0,0,0-.847,3.133c0,1.7,2.544,1.534,2.544,1.534s3.922.083.937-4.578c.012-.349.265-8.631-3.739-12.648A7.29,7.29,0,0,0,243.2,1044a6.93,6.93,0,0,0-5.256,2.2c-3.558,3.783-3.122,11.316-3.025,12.543a9.242,9.242,0,0,0-.923,3.13c0,1.7,2.543,1.534,2.543,1.534s3.839.075,1.01-4.453c.005-.032-.043-1.043.008-2.46" transform="translate(-30.221 4.603)" fill="#333" stroke="#fff" stroke-linecap="round" stroke-linejoin="round" stroke-width="1.33"/>
  </g>
</svg>
