<svg xmlns="http://www.w3.org/2000/svg" width="65" height="65" viewBox="0 0 65 65">
  <g id="search_category_bt_4_o" transform="translate(-791 -1511)">
    <path id="패스_3307" data-name="패스 3307" d="M6.5,0h52A6.5,6.5,0,0,1,65,6.5v52A6.5,6.5,0,0,1,58.5,65H6.5A6.5,6.5,0,0,1,0,58.5V6.5A6.5,6.5,0,0,1,6.5,0Z" transform="translate(791 1511)" fill="#333"/>
    <g id="그룹_1027" data-name="그룹 1027" transform="translate(804.891 1529.778)">
      <path id="패스_2220" data-name="패스 2220" d="M255.465,27.022a.848.848,0,0,1-.435-.12,27,27,0,0,0-12.873-3.47h0a1.424,1.424,0,0,1-1.409-1.419V1.421A1.42,1.42,0,0,1,242.181,0,28.786,28.786,0,0,1,255.9,3.711a.849.849,0,0,1,.414.729V26.173a.849.849,0,0,1-.849.849m-13.019-5.283a29.293,29.293,0,0,1,12.17,3V4.929A27.153,27.153,0,0,0,242.447,1.7Zm-.275,0h0Z" transform="translate(-236.856 -0.002)" fill="#fff" stroke="#333" stroke-width="0.3"/>
      <path id="패스_2221" data-name="패스 2221" d="M1099.3,27.025a.849.849,0,0,1-.849-.849V4.443a.849.849,0,0,1,.414-.729A28.786,28.786,0,0,1,1112.582.005a1.42,1.42,0,0,1,1.432,1.419V22.016a1.424,1.424,0,0,1-1.409,1.419h0a27,27,0,0,0-12.873,3.47.848.848,0,0,1-.435.12m.849-22.093V24.738a29.294,29.294,0,0,1,12.17-3V1.707a27.153,27.153,0,0,0-12.17,3.225M1112.6,22.587h0Zm-.007-.849Z" transform="translate(-1080.688 -0.005)" fill="#fff" stroke="#333" stroke-width="0.3"/>
      <path id="패스_2222" data-name="패스 2222" d="M18.609,160.9H2.084A2.086,2.086,0,0,1,0,158.813V136.926a.849.849,0,0,1,.849-.849H2.142a.849.849,0,1,1,0,1.7H1.7v21.039a.387.387,0,0,0,.386.386H18.609a.849.849,0,1,1,0,1.7" transform="translate(0 -133.877)" fill="#fff" stroke="#333" stroke-width="0.3"/>
      <path id="패스_2223" data-name="패스 2223" d="M1115.823,160.9H1099.3a.849.849,0,1,1,0-1.7h16.525a.387.387,0,0,0,.386-.386V137.775h-.444a.849.849,0,0,1,0-1.7h1.293a.849.849,0,0,1,.849.849v21.887a2.086,2.086,0,0,1-2.084,2.084" transform="translate(-1080.688 -133.877)" fill="#fff" stroke="#333" stroke-width="0.3"/>
    </g>
  </g>
</svg>
