<svg xmlns="http://www.w3.org/2000/svg" width="65" height="65" viewBox="0 0 65 65">
  <g id="search_category_bt_1" transform="translate(-649 -1387)">
    <path id="패스_3308" data-name="패스 3308" d="M6.5,0h52A6.5,6.5,0,0,1,65,6.5v52A6.5,6.5,0,0,1,58.5,65H6.5A6.5,6.5,0,0,1,0,58.5V6.5A6.5,6.5,0,0,1,6.5,0Z" transform="translate(649 1387)" fill="#d8d6dd"/>
    <g id="그룹_1577" data-name="그룹 1577" transform="translate(-425.422 931.53)">
      <g id="그룹_1559" data-name="그룹 1559" transform="translate(1116.237 473.331)">
        <path id="패스_3258" data-name="패스 3258" d="M1260.946,495.97a.662.662,0,0,1-.21-.034l-3.993-1.331a.665.665,0,0,1,.421-1.263l3.486,1.162,3.451-5.751-7.618-7.617a.665.665,0,0,1,.941-.941l7.985,7.985a.666.666,0,0,1,.1.813l-3.993,6.654A.665.665,0,0,1,1260.946,495.97Z" transform="translate(-1256.288 -480.001)" fill="#333"/>
      </g>
      <g id="그룹_1560" data-name="그룹 1560" transform="translate(1088.29 473.331)">
        <path id="패스_3259" data-name="패스 3259" d="M1092.948,495.97a.665.665,0,0,1-.571-.323l-3.992-6.654a.666.666,0,0,1,.1-.813l7.984-7.985a.665.665,0,0,1,.941.941l-7.617,7.617,3.45,5.751,3.486-1.162a.665.665,0,0,1,.421,1.263l-3.992,1.331A.662.662,0,0,1,1092.948,495.97Z" transform="translate(-1088.29 -480.001)" fill="#333"/>
      </g>
      <g id="그룹_1561" data-name="그룹 1561" transform="translate(1096.275 472)">
        <path id="패스_3260" data-name="패스 3260" d="M1156.917,503.941h-19.962a.665.665,0,0,1-.665-.665V474a.665.665,0,0,1,.455-.631l3.992-1.33a.666.666,0,0,1,.7.177,7.476,7.476,0,0,0,5.5,2.449h0a7.479,7.479,0,0,0,5.5-2.45.665.665,0,0,1,.709-.174l3.98,1.327a.665.665,0,0,1,.455.631v29.279A.665.665,0,0,1,1156.917,503.941Zm-19.3-1.331h18.631V474.476l-3.142-1.047a8.759,8.759,0,0,1-6.174,2.564h0a8.755,8.755,0,0,1-6.172-2.563l-3.142,1.046Z" transform="translate(-1136.289 -472)" fill="#333"/>
      </g>
    </g>
  </g>
</svg>
