<svg xmlns="http://www.w3.org/2000/svg" width="65" height="65" viewBox="0 0 65 65">
  <g id="search_category_bt_3" transform="translate(16.957 7.028)">
    <rect id="사각형_1529" data-name="사각형 1529" width="65" height="65" rx="5" transform="translate(-16.957 -7.028)" fill="#d8d6dd"/>
    <path id="패스_3309" data-name="패스 3309" d="M23.693,22.541c-6.944,0-12.383-2.564-12.383-5.838A3.3,3.3,0,0,1,12,14.738a.583.583,0,0,1,.942.687,2.169,2.169,0,0,0-.463,1.281c0,2.256,4.507,4.671,11.218,4.671s11.218-2.412,11.218-4.671a2.412,2.412,0,0,0-.767-1.644.583.583,0,1,1,.846-.8A3.529,3.529,0,0,1,36.077,16.7c0,3.274-5.44,5.838-12.383,5.838" transform="translate(-3.101 6.765)" fill="#333" stroke="#333" stroke-width="0.2"/>
    <path id="패스_3310" data-name="패스 3310" d="M23.693,36.209c-6.944,0-12.383-2.564-12.383-5.838V17.464a.583.583,0,1,1,1.167,0V30.371c0,2.256,4.507,4.671,11.218,4.671s11.218-2.412,11.218-4.671V17.464a.583.583,0,0,1,1.167,0h0V30.371c0,3.274-5.44,5.838-12.383,5.838" transform="translate(-3.101 6.465)" fill="#333" stroke="#333" stroke-width="0.2"/>
    <path id="패스_3311" data-name="패스 3311" d="M23.8,18.733c-5.322,0-9.49-2.011-9.49-4.578a2.29,2.29,0,0,1,.037-.406c.028-1.221.8-3.442,5.561-5,2.821-.922,3.229-1.815,3.275-2.153.089-.661-.785-1.266-.794-1.271a.583.583,0,0,1,.39-1.066,14.054,14.054,0,0,1,8.55,4.788c2.68,3.457,2.991,5.828.972,7.463-1.429,1.155-3.442,2.222-8.5,2.222M24.215,5.78a1.956,1.956,0,0,1,.12.966c-.165,1.25-1.5,2.265-4.068,3.108-4.287,1.4-4.755,3.232-4.759,3.953a.548.548,0,0,1-.011.108,1.256,1.256,0,0,0-.026.238c0,1.613,3.419,3.411,8.325,3.411,4.7,0,6.51-.943,7.771-1.965.673-.545,2.074-1.679-1.161-5.842a12.3,12.3,0,0,0-6.192-3.979" transform="translate(-3.422 7.814)" fill="#333" stroke="#333" stroke-width="0.2"/>
    <path id="패스_3312" data-name="패스 3312" d="M9.336,31.958h-4.3a.55.55,0,0,1-.525-.572V28.307a.583.583,0,0,0-1.167,0v3.078a1.717,1.717,0,0,0,1.692,1.737h4.3Z" transform="translate(-2.25 5.307)" fill="#333" stroke="#333" stroke-width="0.2"/>
    <path id="패스_3313" data-name="패스 3313" d="M8.978,22.852H4.814c-.4,0-.694-.222-.694-.42a.531.531,0,0,0-.006-.084L1.167,2.04v0a.855.855,0,0,1,.256-.566,1.093,1.093,0,0,1,.769-.307H3.645a.624.624,0,0,0,.071,0h10.54a1.079,1.079,0,0,1,.739.28.861.861,0,0,1,.283.592L14.37,8.293c.382-.13.8-.249,1.233-.364l.838-5.766a.52.52,0,0,0,.006-.083A2.007,2.007,0,0,0,15.792.6,2.244,2.244,0,0,0,14.257,0H12.839c-.027,0-.054,0-.08,0H3.69c-.028,0-.055,0-.083,0H2.193A2.265,2.265,0,0,0,.6.654,2.009,2.009,0,0,0,0,2.078a.65.65,0,0,0,.006.083l2.951,20.32a1.752,1.752,0,0,0,1.86,1.538H8.978Z" transform="translate(-1.893 8.269)" fill="#333" stroke="#333" stroke-width="0.2"/>
  </g>
</svg>
