<svg xmlns="http://www.w3.org/2000/svg" width="55" height="55" viewBox="0 0 55 55">
  <g id="store_category_kids_o" transform="translate(-1122 -774)">
    <path id="패스_3119" data-name="패스 3119" d="M10,0H45A10,10,0,0,1,55,10V45A10,10,0,0,1,45,55H10A10,10,0,0,1,0,45V10A10,10,0,0,1,10,0Z" transform="translate(1122 774)" fill="#414445"/>
    <path id="합치기_26" data-name="합치기 26" d="M-5233.825,4597.926a12.159,12.159,0,0,1-4.458-5.322,5.2,5.2,0,0,1-3.631-1.9,5.109,5.109,0,0,1-1.086-3.052,3.272,3.272,0,0,1,3.234-3.58h.005a12.753,12.753,0,0,1,3.929-8.508,12.745,12.745,0,0,1,8.854-3.563,12.739,12.739,0,0,1,8.855,3.564,12.745,12.745,0,0,1,3.929,8.526,3.011,3.011,0,0,1,2.034,1.071,3.809,3.809,0,0,1,.828,2.489,5.11,5.11,0,0,1-1.049,3,5.145,5.145,0,0,1-3.509,1.934,12.155,12.155,0,0,1-4.459,5.337,12.131,12.131,0,0,1-6.742,2.054A12.132,12.132,0,0,1-5233.825,4597.926Zm-7.687-10.275a3.631,3.631,0,0,0,3.745,3.5.8.8,0,0,1,.275.054l.013.005.009,0,.009.005.02.009.008,0a.225.225,0,0,1,.03.016l.009.005.079.042v.011a.763.763,0,0,1,.195.226l.021.04.016.03v.005c0,.009.009.021.013.033a10.76,10.76,0,0,0,9.979,6.848,10.761,10.761,0,0,0,9.986-6.863l.009-.022a.734.734,0,0,1,.4-.4l.005,0,.016-.007.019-.006.012,0h0l.07-.019.019,0,.022,0,.018,0h.019l.011,0h.03a3.568,3.568,0,0,0,3.633-3.492c0-1.041-.54-2.092-1.746-2.092-.051,0-.1,0-.158.006a.74.74,0,0,1-.241.047l-.15.005c-.1,0-.209.006-.317.006a14.183,14.183,0,0,1-5.359-1.034,13.232,13.232,0,0,1-4.317-2.821,13.239,13.239,0,0,1-4.53,3.333,14.3,14.3,0,0,1-5.825,1.239,11.961,11.961,0,0,1-3.489-.631l-.251-.073-.025-.006a2.094,2.094,0,0,0-.537-.072C-5240.971,4585.559-5241.512,4586.61-5241.512,4587.651Zm3.228-3.3a9.9,9.9,0,0,0,2.821.5,12.154,12.154,0,0,0,9.711-4.651l.017-.022.008-.009.005-.006a.743.743,0,0,1,.57-.266.736.736,0,0,1,.447.15.844.844,0,0,1,.125.118,12.2,12.2,0,0,0,8.9,3.967,11.287,11.287,0,0,0-11.3-10.645A11.4,11.4,0,0,0-5238.284,4584.354Zm7.905,10.625a.73.73,0,0,1-.244-.515.741.741,0,0,1,.192-.536.745.745,0,0,1,.551-.243.742.742,0,0,1,.5.193,3.668,3.668,0,0,0,2.4.758,3.669,3.669,0,0,0,2.4-.758.733.733,0,0,1,.5-.193.743.743,0,0,1,.551.243.739.739,0,0,1,.192.536.741.741,0,0,1-.242.516,5.159,5.159,0,0,1-3.4,1.145A5.15,5.15,0,0,1-5230.379,4594.979Zm7.845-5.707v-1.2a1.043,1.043,0,0,1,1.042-1.042,1.042,1.042,0,0,1,1.041,1.042v1.2a1.042,1.042,0,0,1-1.041,1.042A1.043,1.043,0,0,1-5222.534,4589.272Zm-11.193,0v-1.2a1.042,1.042,0,0,1,1.041-1.042,1.043,1.043,0,0,1,1.042,1.042v1.2a1.043,1.043,0,0,1-1.042,1.042A1.042,1.042,0,0,1-5233.728,4589.272Z" transform="translate(6376.665 -3784.488)" fill="#fff"/>
  </g>
</svg>
