<svg xmlns="http://www.w3.org/2000/svg" width="17.001" height="26.002" viewBox="0 0 17.001 26.002">
  <g id="brand_ico_location" transform="translate(-447.181 -268.998)">
    <g id="패스_77" data-name="패스 77" transform="translate(447.203 269)">
      <path id="패스_787" data-name="패스 787" d="M8.479,0a8.328,8.328,0,0,1,8.477,8.17c.53,5.044-8.282,17.88-8.477,17.83S-.523,13.646,0,8.17A8.328,8.328,0,0,1,8.479,0Z" fill="none"/>
      <path id="패스_788" data-name="패스 788" d="M8.479,1.5A6.837,6.837,0,0,0,1.5,8.17v.072l-.007.071c-.1,1.074.22,3.756,3.54,9.643,1.231,2.184,2.542,4.2,3.442,5.511.888-1.32,2.2-3.387,3.492-5.719,3.4-6.154,3.579-8.639,3.5-9.422l-.008-.078V8.17A6.837,6.837,0,0,0,8.479,1.5m0-1.5a8.328,8.328,0,0,1,8.477,8.17c.53,5.044-8.281,17.88-8.477,17.829S-.523,13.646,0,8.17A8.328,8.328,0,0,1,8.479,0Z" fill="#fff"/>
    </g>
    <g id="타원_34" data-name="타원 34" transform="translate(452.051 274.029)" fill="none" stroke="#fff" stroke-width="1.5">
      <circle cx="3.5" cy="3.5" r="3.5" stroke="none"/>
      <circle cx="3.5" cy="3.5" r="2.75" fill="none"/>
    </g>
  </g>
</svg>
