<svg xmlns="http://www.w3.org/2000/svg" width="700" height="70" viewBox="0 0 700 70">
  <g id="floor_img_touch" transform="translate(-508 -431)">
    <rect id="사각형_984" data-name="사각형 984" width="700" height="70" rx="35" transform="translate(508 431)" fill="#2d2d2d" opacity="0.8"/>
    <g id="그룹_1485" data-name="그룹 1485" transform="translate(2 4)">
      <g id="floor_ico_touch" transform="translate(541.202 442.369)">
        <path id="패스_2088" data-name="패스 2088" d="M80.635,4.99V21.936l-2.556-6.123L72,18.028l6.849,16.4,1.467-.611L74.109,18.952,77.2,17.827l3.586,8.587,1.468-.613-.026-.059V6.581H85.3l-.013,6.589.012,6.918h0V25.76h1.589V14.534l2.5.527v10.7h1.589V18l2.235.506V25.76H94.8V20.593l2.195.5v10.4L93.02,35.47l1.124,1.124,4.439-4.44V19.826L94.8,18.962V17.235l-3.824-.863v-2.6l-4.1-.865.013-7.917Z" transform="translate(-16.157 -1.12)" fill="#fff"/>
        <path id="패스_2089" data-name="패스 2089" d="M11.69,4.99l.012,7.917-4.094.865v2.6l-3.823.863v1.727L0,19.826V32.154l4.438,4.44L5.563,35.47,1.589,31.494v-10.4l2.2-.5V25.76H5.373V18.507L7.607,18V25.76H9.2v-10.7l2.5-.527V25.76h1.589V20.089h0l.01-6.918-.012-6.589h3.074v19.16l-.026.059,1.468.613,3.586-8.587,3.089,1.125L18.268,33.813l1.466.611,6.849-16.4L20.5,15.813l-2.555,6.123V4.99Z" transform="translate(0 -1.12)" fill="#fff"/>
        <path id="패스_2090" data-name="패스 2090" d="M60.382,0V2.248l5.5,5.5-5.5,5.5v2.248l7.744-7.745Z" transform="translate(-13.55 0)" fill="#fff"/>
        <path id="패스_2091" data-name="패스 2091" d="M40.417,0,32.672,7.744l7.744,7.745V13.242l-5.5-5.5,5.5-5.5Z" transform="translate(-7.332 0)" fill="#fff"/>
        <rect id="사각형_903" data-name="사각형 903" width="13.243" height="1.589" transform="translate(33.589 6.949)" fill="#fff"/>
      </g>
    </g>
  </g>
</svg>
