<svg xmlns="http://www.w3.org/2000/svg" width="69.546" height="69.546" viewBox="0 0 69.546 69.546">
  <g id="floor_ico_here_o" transform="translate(3276.046 1780.182)">
    <path id="패스_2898" data-name="패스 2898" d="M34.773,0A34.773,34.773,0,1,1,0,34.773,34.773,34.773,0,0,1,34.773,0Z" transform="translate(-3276.046 -1780.182)" fill="#8a8ea1"/>
    <path id="빼기_7" data-name="빼기 7" d="M12.31,34.6v0l-2.183-3.468c-.861-1.368-1.944-2.885-2.989-4.352C3.79,22.083,0,16.763,0,12.219A12.1,12.1,0,0,1,3.605,3.578a12.327,12.327,0,0,1,21.011,8.641c0,4.543-3.789,9.861-7.132,14.553l-.036.05c-1.088,1.527-2.114,2.969-2.957,4.31L12.312,34.6Zm0-26.249a3.851,3.851,0,1,0,3.88,3.849A3.868,3.868,0,0,0,12.306,8.352Z" transform="translate(-3253.581 -1762.709)" fill="#fff"/>
  </g>
</svg>
