<svg xmlns="http://www.w3.org/2000/svg" width="14.516" height="20.462" viewBox="0 0 14.516 20.462">
  <g id="floor_map_ico_arrival" transform="translate(0.016 0.231)">
    <path id="빼기_6" data-name="빼기 6" d="M7.258,20.462h0L5.745,18.544c-.252-.364-.516-.739-.8-1.136C2.744,14.281,0,10.391,0,7.226a7.163,7.163,0,0,1,2.126-5.11,7.28,7.28,0,0,1,10.264,0,7.163,7.163,0,0,1,2.126,5.11,11.886,11.886,0,0,1-1.826,5.535,57.044,57.044,0,0,1-3.557,5.381l0,.005-.285.4L7.258,20.461Zm0-16.259a3.014,3.014,0,1,0,3.027,3.014A3.024,3.024,0,0,0,7.257,4.2Z" transform="translate(-0.016 -0.231)" fill="#27b3f6"/>
  </g>
</svg>
