<svg xmlns="http://www.w3.org/2000/svg" width="22.37" height="29.219" viewBox="0 0 22.37 29.219">
  <g id="ico_here" transform="translate(0.006 0.974)">
    <path id="패스_693" data-name="패스 693" d="M939.961,496.749a11.58,11.58,0,0,0-5.418-8.227,11.065,11.065,0,0,0-5.612-1.552h-.183a11.073,11.073,0,0,0-5.615,1.552,10.891,10.891,0,0,0-3.921,15.084,17.292,17.292,0,0,0,1.732,2.6c1.12,1.431,2.085,2.724,3.458,4.436,1.107,1.376,1.3,1.527,2.593,3.162.766.963,1.386,1.775,1.809,2.339v.047l.019-.025.016.022h0l.019-.022.016.025v-.044c.426-.55,1.045-1.376,1.809-2.339,1.3-1.635,1.487-1.78,2.6-3.162,1.373-1.711,2.335-3,3.458-4.436a17.424,17.424,0,0,0,1.729-2.6A11.623,11.623,0,0,0,939.961,496.749Z" transform="translate(-917.66 -487.944)" fill="#d23d2a"/>
    <path id="패스_694" data-name="패스 694" d="M945.467,506.083a5.586,5.586,0,0,0-4.623-4.62V500H939.1v1.476a5.586,5.586,0,0,0-4.623,4.62H933v1.745h1.474a5.586,5.586,0,0,0,4.623,4.62v1.476h1.742v-1.49a5.586,5.586,0,0,0,4.623-4.62h1.476v-1.745Zm-1.351.872a4.144,4.144,0,1,1-4.142-4.141,4.144,4.144,0,0,1,4.142,4.141Z" transform="translate(-928.924 -496.534)" fill="#fff"/>
    <circle id="타원_206" data-name="타원 206" cx="2.016" cy="2.016" r="2.016" transform="translate(9.034 8.355)" fill="#fff"/>
  </g>
</svg>
