<svg xmlns="http://www.w3.org/2000/svg" width="50" height="50" viewBox="0 0 50 50">
  <g id="그룹_532" data-name="그룹 532" transform="translate(-1195 -678.613)">
    <rect id="사각형_581" data-name="사각형 581" width="50" height="50" transform="translate(1195 678.613)" fill="none"/>
    <g id="ico_location_" transform="translate(753.11 417.935)">
      <g id="패스_77" data-name="패스 77" transform="translate(446.203 271.678)" fill="none">
        <path d="M6.206,0a6.211,6.211,0,0,1,6.211,6.211C12.806,10.045,6.35,19.8,6.206,19.765S-.389,10.374,0,6.211A6.211,6.211,0,0,1,6.206,0Z" stroke="none"/>
        <path d="M 6.206286430358887 1.499996185302734 C 3.608606338500977 1.499996185302734 1.495245933532715 3.613365173339844 1.495245933532715 6.211045265197754 L 1.495245933532715 6.280125617980957 L 1.488896369934082 6.348905563354492 C 1.431156158447266 6.974555969238281 1.562456130981445 8.91956615447998 4.022686004638672 13.45646572113037 C 4.790915489196777 14.87315464019775 5.583473682403564 16.166259765625 6.201279163360596 17.12397956848145 C 6.827211856842041 16.13059234619141 7.636550426483154 14.77589797973633 8.423496246337891 13.29588508605957 C 10.85233592987061 8.727945327758789 10.98196601867676 6.925195693969727 10.92495632171631 6.36214542388916 L 10.91732597351074 6.286786079406738 L 10.91732597351074 6.211045265197754 C 10.91732597351074 3.613365173339844 8.803966522216797 1.499996185302734 6.206286430358887 1.499996185302734 M 6.206286430358887 -3.814697265625e-06 C 9.63654613494873 -3.814697265625e-06 12.41732597351074 2.78077507019043 12.41732597351074 6.211045265197754 C 12.80551624298096 10.04517555236816 6.349535942077637 19.80333137512207 6.206286430358887 19.76490592956543 C 6.062876224517822 19.72647476196289 -0.3889636993408203 10.37384605407715 -0.004754066467285156 6.211045265197754 C -0.004754066467285156 2.78077507019043 2.776026725769043 -3.814697265625e-06 6.206286430358887 -3.814697265625e-06 Z" stroke="none" fill="#fff"/>
      </g>
      <g id="패스_689" data-name="패스 689" transform="translate(474.203 282.678)" fill="none" stroke-linecap="round">
        <path d="M6.206,0a6.211,6.211,0,0,1,6.211,6.211C12.806,10.045,6.35,19.8,6.206,19.765S-.389,10.374,0,6.211A6.211,6.211,0,0,1,6.206,0Z" stroke="none"/>
        <path d="M 6.206286430358887 1.499996185302734 C 3.608606338500977 1.499996185302734 1.495245933532715 3.613365173339844 1.495245933532715 6.211045265197754 L 1.495245933532715 6.280125617980957 L 1.488896369934082 6.348905563354492 C 1.431156158447266 6.974555969238281 1.562456130981445 8.91956615447998 4.022686004638672 13.45646572113037 C 4.790915489196777 14.87315464019775 5.583473682403564 16.166259765625 6.201279163360596 17.12397956848145 C 6.827211856842041 16.13059234619141 7.636550426483154 14.77589797973633 8.423496246337891 13.29588508605957 C 10.85233592987061 8.727945327758789 10.98196601867676 6.925195693969727 10.92495632171631 6.36214542388916 L 10.91732597351074 6.286786079406738 L 10.91732597351074 6.211045265197754 C 10.91732597351074 3.613365173339844 8.803966522216797 1.499996185302734 6.206286430358887 1.499996185302734 M 6.206286430358887 -3.814697265625e-06 C 9.63654613494873 -3.814697265625e-06 12.41732597351074 2.78077507019043 12.41732597351074 6.211045265197754 C 12.80551624298096 10.04517555236816 6.349535942077637 19.80333137512207 6.206286430358887 19.76490592956543 C 6.062876224517822 19.72647476196289 -0.3889636993408203 10.37384605407715 -0.004754066467285156 6.211045265197754 C -0.004754066467285156 2.78077507019043 2.776026725769043 -3.814697265625e-06 6.206286430358887 -3.814697265625e-06 Z" stroke="none" fill="#fff"/>
      </g>
      <g id="타원_34" data-name="타원 34" transform="translate(449.89 275.065)" fill="none" stroke="#fff" stroke-width="1.5">
        <circle cx="2.5" cy="2.5" r="2.5" stroke="none"/>
        <circle cx="2.5" cy="2.5" r="1.75" fill="none"/>
      </g>
      <g id="타원_195" data-name="타원 195" transform="translate(477.89 286.065)" fill="none" stroke="#fff" stroke-linecap="round" stroke-width="1.5">
        <circle cx="2.5" cy="2.5" r="2.5" stroke="none"/>
        <circle cx="2.5" cy="2.5" r="1.75" fill="none"/>
      </g>
    </g>
    <path id="패스_688" data-name="패스 688" d="M235.125,255.757H221.6a2.689,2.689,0,1,1,0-5.379h2.689a2.689,2.689,0,0,0,0-5.379H214" transform="translate(995 464.243)" fill="none" stroke="#fff" stroke-linecap="round" stroke-miterlimit="10" stroke-width="1.5"/>
  </g>
</svg>
