<svg xmlns="http://www.w3.org/2000/svg" width="50" height="50" viewBox="0 0 50 50">
  <g id="ico_location_" transform="translate(-433.182 -256.636)">
    <g id="패스_77" data-name="패스 77" transform="translate(447.803 267.629)" fill="none">
      <path d="M10.378,0A10.22,10.22,0,0,1,20.75,10.06c.648,6.21-10.132,18.751-10.372,18.688S-.635,16.8.006,10.06A10.22,10.22,0,0,1,10.378,0Z" stroke="none"/>
      <path d="M 10.37827110290527 1.499996185302734 C 5.486250877380371 1.499996185302734 1.50629997253418 5.339975357055664 1.50629997253418 10.05995559692383 L 1.50629997253418 10.13116645812988 L 1.499551773071289 10.20205497741699 C 1.279630661010742 12.51317596435547 2.815231323242188 16.22681617736816 5.823480606079102 20.65889549255371 C 7.515048027038574 23.15109443664551 9.304300308227539 25.32879447937012 10.37855625152588 26.55864143371582 C 11.45419120788574 25.29465866088867 13.27200317382812 23.00955200195312 14.99929046630859 20.40167617797852 C 17.96417045593262 15.92526626586914 19.47673034667969 12.30781555175781 19.25835037231445 10.21568489074707 L 19.25024032592773 10.13803672790527 L 19.25024032592773 10.05995559692383 C 19.25024032592773 5.339975357055664 15.27029037475586 1.499996185302734 10.37827110290527 1.499996185302734 M 10.37827110290527 -3.814697265625e-06 C 16.1065502166748 -3.814697265625e-06 20.75024032592773 4.503995895385742 20.75024032592773 10.05995559692383 C 21.39847946166992 16.27005767822266 10.61791133880615 28.81057548522949 10.37827110290527 28.7482852935791 C 10.13878059387207 28.6860466003418 -0.6352996826171875 16.80241584777832 0.006299972534179688 10.05995559692383 C 0.006299972534179688 4.503995895385742 4.649990081787109 -3.814697265625e-06 10.37827110290527 -3.814697265625e-06 Z" stroke="none" fill="#fff"/>
    </g>
    <g id="타원_34" data-name="타원 34" transform="translate(453.182 272.636)" fill="none" stroke="#fff" stroke-width="1.5">
      <circle cx="5" cy="5" r="5" stroke="none"/>
      <circle cx="5" cy="5" r="4.25" fill="none"/>
    </g>
    <rect id="사각형_580" data-name="사각형 580" width="50" height="50" transform="translate(433.182 256.636)" fill="none"/>
  </g>
</svg>
