<svg id="ipark_logo" xmlns="http://www.w3.org/2000/svg" width="149.952" height="20.145" viewBox="0 0 149.952 20.145">
  <path id="패스_687" data-name="패스 687" d="M210.285,8.462h2.239l3.64,5.652L219.8,8.461h2.237l0,11.955h-2.1l0-8.576-3.775,5.642H216.1l-3.742-5.6v8.537h-2.066Z" transform="translate(-107.413 -4.322)" fill="#414445"/>
  <path id="패스_688" data-name="패스 688" d="M243.763,8.282h1.949l5.265,12.042h-2.223l-1.212-2.888-5.654,0-1.232,2.886H238.5Zm3.009,7.292-2.067-4.782-2.05,4.782Z" transform="translate(-121.828 -4.231)" fill="#414445"/>
  <path id="패스_689" data-name="패스 689" d="M268.185,8.449h2.1V18.5l6.289,0V20.4l-8.389,0Z" transform="translate(-136.988 -4.316)" fill="#414445"/>
  <path id="패스_690" data-name="패스 690" d="M289.373,8.449V20.405l8.388,0V18.491l-6.29,0V8.449Z" transform="translate(-147.811 -4.316)" fill="#414445"/>
  <path id="패스_691" data-name="패스 691" d="M111.844,20.093l-6.916-9.041-3.121,3.24-.014,5.8H98.377V.143h3.417v10.17L111.426.127l4.158.017L107.227,8.7l8.749,11.389Zm-22.918,0L84,13.1H79.5v6.992H76.089V.147h8.884c4.561,0,7.4,2.415,7.4,6.3A5.921,5.921,0,0,1,87.622,12.5l-.074.022,5.4,7.573ZM79.5,10.085h5.213c2.538,0,4.178-1.346,4.178-3.433,0-2.2-1.494-3.407-4.208-3.407H79.5ZM69.071,20.093l-2.037-4.844H57.481L55.42,20.093H51.928L60.7,0h3.2l8.777,20.093ZM58.725,12.234H65.8L62.245,4.02Zm-22.7,7.858V.147h7.852c4.6,0,7.567,2.62,7.567,6.678,0,4.142-3.127,6.82-7.969,6.82H39.446v6.448Zm3.417-9.52h4.149c2.661,0,4.381-1.438,4.381-3.664,0-2.328-1.6-3.664-4.381-3.664H39.446Z" transform="translate(-18.404)" fill="#414445"/>
  <path id="패스_692" data-name="패스 692" d="M3.515.19H0V2.321A3.513,3.513,0,0,1,3.515,5.836V14.6A3.513,3.513,0,0,1,0,18.107v2.135H10.542V18.107a3.513,3.513,0,0,1-3.514-3.512V5.836a3.513,3.513,0,0,1,3.514-3.514V.19H3.515Z" transform="translate(0 -0.097)" fill="#414445"/>
</svg>
