<svg xmlns="http://www.w3.org/2000/svg" width="28.297" height="39.111" viewBox="0 0 28.297 39.111">
  <g id="parking_ico_location" transform="translate(-447.781 -267.627)">
    <path id="패스_77" data-name="패스 77" d="M14.127,2.041A11.877,11.877,0,0,0,2.057,13.686v.1l-.009.1c-.3,3.144,1.79,8.2,5.882,14.226a87.443,87.443,0,0,0,6.2,8.026,92.29,92.29,0,0,0,6.286-8.376c4.034-6.09,6.091-11.011,5.794-13.857L26.2,13.8v-.106A11.877,11.877,0,0,0,14.127,2.041m0-2.041a13.9,13.9,0,0,1,14.11,13.686c.882,8.448-13.784,25.509-14.11,25.424S-.857,22.859.016,13.686A13.9,13.9,0,0,1,14.127,0Z" transform="translate(447.803 267.629)" fill="#fff"/>
    <path id="타원_34" data-name="타원 34" d="M6.8,2.041A4.762,4.762,0,1,0,11.564,6.8,4.762,4.762,0,0,0,6.8,2.041M6.8,0A6.8,6.8,0,1,1,0,6.8,6.8,6.8,0,0,1,6.8,0Z" transform="translate(455.128 274.44)" fill="#fff"/>
  </g>
</svg>
