<svg xmlns="http://www.w3.org/2000/svg" width="45" height="45" viewBox="0 0 45 45">
  <g id="pop_ico_location" transform="translate(-168 -609)">
    <rect id="사각형_978" data-name="사각형 978" width="45" height="45" transform="translate(168 609)" fill="none"/>
    <g id="그룹_663" data-name="그룹 663" transform="translate(159.164 598.696)">
      <path id="패스_787" data-name="패스 787" d="M11.686,2.226a9.737,9.737,0,0,0-9.543,9.9c0,1.892.926,5.681,5.338,12.982,1.558,2.579,3.136,4.891,4.2,6.394,1.059-1.509,2.637-3.837,4.208-6.448,4.413-7.334,5.34-11.078,5.34-12.928a9.737,9.737,0,0,0-9.543-9.9m0-2.224A11.925,11.925,0,0,1,23.372,12.126c0,3.113-1.907,7.859-5.665,14.106-2.775,4.611-5.589,8.382-5.617,8.42a.5.5,0,0,1-.4.205h0a.5.5,0,0,1-.4-.2c-.028-.037-2.843-3.771-5.618-8.365C1.907,20.068,0,15.3,0,12.126A11.925,11.925,0,0,1,11.686,0" transform="translate(20.149 15.386)" fill="#fff"/>
      <path id="패스_788" data-name="패스 788" d="M12.671,17.726a5.269,5.269,0,1,1,5.269-5.269,5.275,5.275,0,0,1-5.269,5.269m0-8.395A3.126,3.126,0,1,0,15.8,12.457a3.129,3.129,0,0,0-3.126-3.126" transform="translate(19.094 13.933)" fill="#fff"/>
    </g>
  </g>
</svg>
