<svg id="popup_ico_wayfinding" xmlns="http://www.w3.org/2000/svg" width="50" height="50" viewBox="0 0 50 50">
  <rect id="사각형_374" data-name="사각형 374" width="50" height="50" fill="none"/>
  <path id="패스_395" data-name="패스 395" d="M17.094,12.839H0v-1.48H17.094a2.043,2.043,0,0,0,0-4.085H14.311a3.523,3.523,0,0,1,0-7.046L31.186.105v1.48l-16.875.123a2.043,2.043,0,0,0,0,4.085h2.783a3.523,3.523,0,0,1,0,7.046Z" transform="translate(4 27.235)" fill="#fff" stroke="#fff" stroke-width="0.5"/>
  <g id="floor_minimap_here" transform="translate(102.403 58.241)">
    <path id="빼기_10" data-name="빼기 10" d="M8.471,23.985h0l-1.5-2.4c-.586-.937-1.3-1.946-2.055-3.014v0h0C2.609,15.31,0,11.621,0,8.47a8.471,8.471,0,0,1,14.46-5.99,8.415,8.415,0,0,1,2.481,5.99c0,3.157-2.584,6.8-4.864,10.021-.575.812-1.119,1.579-1.593,2.3-.273.414-.4.609-.511.79l-1.5,2.4ZM8.4,5.793A2.746,2.746,0,1,0,11.15,8.539,2.749,2.749,0,0,0,8.4,5.793Z" transform="translate(-75.747 -54)" fill="#fff"/>
  </g>
</svg>
