<svg id="popup_ico_location" xmlns="http://www.w3.org/2000/svg" width="50" height="50" viewBox="0 0 50 50">
  <rect id="사각형_374" data-name="사각형 374" width="50" height="50" fill="none"/>
  <g id="floor_minimap_here" transform="translate(88.403 62.304)">
    <path id="빼기_10" data-name="빼기 10" d="M2736.5,2401.24h0l-2.123-3.4c-.829-1.325-1.838-2.752-2.906-4.263l0-.005h0c-3.256-4.6-6.947-9.821-6.947-14.276a11.98,11.98,0,1,1,23.96,0c0,4.465-3.655,9.622-6.879,14.173-.814,1.149-1.583,2.233-2.254,3.254-.386.586-.563.862-.723,1.117l-2.124,3.4Zm-.1-25.73a3.884,3.884,0,1,0,3.884,3.884A3.889,3.889,0,0,0,2736.4,2375.51Z" transform="translate(-2800.266 -2421.317)" fill="#fff"/>
  </g>
</svg>
