<svg xmlns="http://www.w3.org/2000/svg" width="20" height="30" viewBox="0 0 20 30">
  <g id="search_ico_location" transform="translate(-487 -1242)">
    <rect id="Rectangle_54" data-name="Rectangle 54" width="20" height="30" transform="translate(487 1242)" fill="#fff" opacity="0"/>
    <path id="Union_8" data-name="Union 8" d="M-475.969-4261.121v-1.657h10.887v1.657Zm4.252-3.314-5.115-13.307a7.028,7.028,0,0,1-.153-.728,6.568,6.568,0,0,1-.088-1.035,6.581,6.581,0,0,1,6.547-6.616,6.583,6.583,0,0,1,6.549,6.616,6.7,6.7,0,0,1-.089,1.035,6.41,6.41,0,0,1-.153.726l-5.115,13.309Zm-.829-15.933a2.26,2.26,0,0,0-.171.864,2.248,2.248,0,0,0,.171.863,2.193,2.193,0,0,0,2.019,1.352h.052a2.217,2.217,0,0,0,.348-.041c.025-.005.051-.008.075-.015a2.112,2.112,0,0,0,.365-.114l.045-.021a2.1,2.1,0,0,0,.313-.171c.013-.009.028-.016.041-.026a2.222,2.222,0,0,0,.289-.241l.049-.05.039-.042a2.17,2.17,0,0,0,.2-.254,2.17,2.17,0,0,1-.2.254,2.218,2.218,0,0,0,.577-1.493,2.205,2.205,0,0,0-2.193-2.216A2.2,2.2,0,0,0-472.546-4280.368Zm2.071,3.078h0Zm.347-.041a2.19,2.19,0,0,1-.347.041A2.19,2.19,0,0,0-470.128-4277.33Zm1.218-.681-.039.042Z" transform="translate(967.549 5530.62)" fill="#919396"/>
  </g>
</svg>
