<svg xmlns="http://www.w3.org/2000/svg" width="80" height="80" viewBox="0 0 80 80">
  <g id="wayfinding_elevator" transform="translate(-126 -772)">
    <rect id="사각형_602" data-name="사각형 602" width="80" height="80" rx="8" transform="translate(126 772)" fill="#2f4e3f"/>
    <g id="그룹_116" data-name="그룹 116" transform="translate(146.405 789.228)">
      <path id="패스_216" data-name="패스 216" d="M49.854,111.723H47.677v-8.708a1.089,1.089,0,0,1,1.088-1.089h1.088V94.307H41.146v7.62h1.089a1.089,1.089,0,0,1,1.088,1.089v8.708H41.154V104.1H40.065a1.088,1.088,0,0,1-1.088-1.088v-9.8a1.088,1.088,0,0,1,1.088-1.088H50.95a1.088,1.088,0,0,1,1.088,1.088v9.8A1.088,1.088,0,0,1,50.95,104.1H49.862Z" transform="translate(-33.527 -68.181)" fill="#fff"/>
      <path id="패스_217" data-name="패스 217" d="M51.641,71.4a3.809,3.809,0,1,1,3.809-3.808A3.809,3.809,0,0,1,51.641,71.4Zm0-5.443a1.632,1.632,0,1,0,1.632,1.632A1.632,1.632,0,0,0,51.641,65.959Z" transform="translate(-39.669 -48.542)" fill="#fff"/>
      <path id="패스_218" data-name="패스 218" d="M101.248,71.4a3.809,3.809,0,1,1,3.809-3.811,3.809,3.809,0,0,1-3.809,3.811Zm0-5.443a1.632,1.632,0,1,0,1.632,1.632A1.632,1.632,0,0,0,101.248,65.959Z" transform="translate(-74.035 -48.542)" fill="#fff"/>
      <path id="패스_219" data-name="패스 219" d="M99.143,111.722H96.968v-6.531a1.088,1.088,0,0,1,1.088-1.089h1.022l-2.741-8.851a1.269,1.269,0,0,0-2.447-.025L91.143,104.1h1.024a1.088,1.088,0,0,1,1.088,1.089v6.531H91.08V106.28H89.67a1.089,1.089,0,0,1-1.04-1.41l3.176-10.263a3.446,3.446,0,0,1,6.62.025L101.6,104.87a1.089,1.089,0,0,1-1.04,1.41H99.143Z" transform="translate(-67.896 -68.18)" fill="#fff"/>
      <path id="패스_220" data-name="패스 220" d="M60.449,82.266H58.272V51.786H23.436v30.48H21.259V50.7a1.088,1.088,0,0,1,1.088-1.088H59.36A1.088,1.088,0,0,1,60.447,50.7Z" transform="translate(-21.259 -38.722)" fill="#fff"/>
      <g id="그룹_114" data-name="그룹 114" transform="translate(7.132 0.013)">
        <rect id="사각형_137" data-name="사각형 137" width="2.177" height="7.62" transform="translate(3.753 1.077)" fill="#fff"/>
        <path id="패스_221" data-name="패스 221" d="M52.618,20.133l-3.3-3.309-3.3,3.309-1.54-1.54,4.071-4.073a1.121,1.121,0,0,1,1.54,0l4.071,4.071Z" transform="translate(-44.474 -14.214)" fill="#fff"/>
      </g>
      <g id="그룹_115" data-name="그룹 115" transform="translate(22.373)">
        <rect id="사각형_138" data-name="사각형 138" width="2.177" height="7.62" transform="translate(3.752)" fill="#fff"/>
        <path id="패스_222" data-name="패스 222" d="M98.923,29.149h0a1.089,1.089,0,0,1-.77-.319l-4.071-4.071,1.54-1.54,3.3,3.3,3.3-3.3,1.54,1.54L99.695,28.83a1.088,1.088,0,0,1-.772.319Z" transform="translate(-94.082 -20.44)" fill="#fff"/>
      </g>
    </g>
  </g>
</svg>
