<svg xmlns="http://www.w3.org/2000/svg" width="60" height="60" viewBox="0 0 60 60">
  <g id="main_menu_ico4" transform="translate(7 12.279)">
    <path id="패스_703" data-name="패스 703" d="M9.876,37.307H1.105a1.105,1.105,0,0,1,0-2.21H8.771v-7.67a1.105,1.105,0,0,1,1.105-1.105h7.67V18.653a1.105,1.105,0,0,1,1.105-1.105h7.67V9.88a1.105,1.105,0,0,1,1.105-1.105h7.666V1.105A1.105,1.105,0,0,1,36.2,0h8.777a1.105,1.105,0,0,1,0,2.21H37.3V9.88A1.105,1.105,0,0,1,36.2,10.985H28.532v7.668a1.105,1.105,0,0,1-1.105,1.105h-7.67v7.668a1.105,1.105,0,0,1-1.105,1.105h-7.67V36.2A1.105,1.105,0,0,1,9.876,37.307Z" fill="#474645"/>
    <rect id="사각형_975" data-name="사각형 975" width="60" height="60" transform="translate(-7 -12.279)" fill="none"/>
  </g>
</svg>
