<svg xmlns="http://www.w3.org/2000/svg" width="60" height="60" viewBox="0 0 60 60">
  <g id="main_menu_ico1" transform="translate(16 10.684)">
    <path id="패스_701" data-name="패스 701" d="M14.231,2.612A11.634,11.634,0,0,0,2.61,14.233c0,2.221,1.128,6.668,6.5,15.238,1.9,3.027,3.819,5.741,5.114,7.506,1.289-1.771,3.211-4.5,5.124-7.568,5.375-8.608,6.5-13,6.5-15.175A11.634,11.634,0,0,0,14.231,2.612m0-2.61A14.248,14.248,0,0,1,28.463,14.233c0,3.654-2.322,9.225-6.9,16.557-3.38,5.412-6.806,9.839-6.841,9.883a.619.619,0,0,1-.49.241h0a.621.621,0,0,1-.49-.238c-.034-.044-3.462-4.427-6.842-9.819C2.322,23.555,0,17.962,0,14.233A14.248,14.248,0,0,1,14.231,0" transform="translate(0 -0.002)" fill="#414445"/>
    <path id="패스_702" data-name="패스 702" d="M13.819,20.021A6.417,6.417,0,1,1,20.235,13.6a6.424,6.424,0,0,1-6.417,6.417m0-10.223A3.807,3.807,0,1,0,17.625,13.6,3.811,3.811,0,0,0,13.819,9.8" transform="translate(0.326 0.315)" fill="#414445"/>
    <rect id="사각형_972" data-name="사각형 972" width="60" height="60" transform="translate(-16 -10.684)" fill="none"/>
  </g>
</svg>
