<svg xmlns="http://www.w3.org/2000/svg" width="60" height="60" viewBox="0 0 60 60">
  <g id="main_menu_ico3" transform="translate(18 11.292)">
    <path id="패스_703" data-name="패스 703" d="M5.913,37.307H2.721a1.079,1.079,0,0,1-1.079-1.079V1.079a1.079,1.079,0,0,1,2.158,0V35.15H4.835V1.079a1.079,1.079,0,0,1,2.158,0V36.228A1.079,1.079,0,0,1,5.913,37.307Z" transform="translate(1.552 -0.001)" fill="#474645"/>
    <path id="패스_704" data-name="패스 704" d="M4.274,16.761H1.079A1.079,1.079,0,0,1,0,15.682V1.079a1.079,1.079,0,1,1,2.158,0V14.6H4.274a1.079,1.079,0,1,1,0,2.158Z" transform="translate(0 -0.001)" fill="#474645"/>
    <path id="패스_705" data-name="패스 705" d="M15.625,0A1.079,1.079,0,0,1,16.7,1.079V36.229a1.079,1.079,0,0,1-1.079,1.079h-3.2a1.079,1.079,0,0,1-1.079-1.079V16.761H8.04a1.079,1.079,0,0,1-1.079-1.079V7.753A7.009,7.009,0,0,1,11.4.926,11.623,11.623,0,0,1,15.625,0ZM14.546,35.15V2.252c-1.855.273-5.427,1.34-5.427,5.5V14.6h3.309a1.079,1.079,0,0,1,1.079,1.079V35.15Z" transform="translate(6.583 0)" fill="#474645"/>
    <path id="패스_706" data-name="패스 706" d="M7.554,16.761H4.361a1.079,1.079,0,1,1,0-2.158H6.475V1.079a1.079,1.079,0,0,1,2.158,0v14.6A1.079,1.079,0,0,1,7.554,16.761Z" transform="translate(3.104 -0.001)" fill="#474645"/>
    <rect id="사각형_974" data-name="사각형 974" width="60" height="60" transform="translate(-18 -11.292)" fill="none"/>
  </g>
</svg>
