<svg xmlns="http://www.w3.org/2000/svg" width="60" height="60" viewBox="0 0 60 60">
  <g id="main_menu_ico6_o" transform="translate(13 9.268)">
    <rect id="사각형_976" data-name="사각형 976" width="60" height="60" transform="translate(-13 -9.268)" fill="none"/>
    <path id="사각형_442" data-name="사각형 442" d="M.592-.554H32.625A1.146,1.146,0,0,1,33.772.592V24.4a1.146,1.146,0,0,1-1.146,1.146H.592A1.146,1.146,0,0,1-.555,24.4V.592A1.146,1.146,0,0,1,.592-.554ZM31.479,1.738H1.738v21.52H31.479Z" transform="translate(0.556 15.329)" fill="#fff"/>
    <path id="패스_694" data-name="패스 694" d="M2.52,17.882V12.188H6.578v.94H3.558v1.327H6.216v.93H3.558v1.558h3.02v.938Z" transform="translate(2.689 13.001)" fill="#fff"/>
    <path id="패스_695" data-name="패스 695" d="M7.663,17.882H6.524L4.635,12.188h1.1l1.379,4.349L8.49,12.188H9.534Z" transform="translate(4.945 13.001)" fill="#fff"/>
    <path id="패스_696" data-name="패스 696" d="M7.328,17.882V12.188h4.053v.94H8.363v1.327h2.656v.93H8.363v1.558h3.018v.938Z" transform="translate(7.818 13.001)" fill="#fff"/>
    <path id="패스_697" data-name="패스 697" d="M13.252,17.882l-2.466-3.91v3.91H9.765V12.188h1.1L13.3,16.042V12.188h1.023v5.694Z" transform="translate(10.418 13.001)" fill="#fff"/>
    <path id="패스_698" data-name="패스 698" d="M15.035,13.153v4.729H14V13.153H12.311v-.965h4.411v.965Z" transform="translate(13.134 13.001)" fill="#fff"/>
    <path id="패스_699" data-name="패스 699" d="M17.379,10.267h-.008l-8.486-.06a1.146,1.146,0,0,1-.637-2.093L15.186,3.39a4.72,4.72,0,0,1,1.033-.514l.031-.01a3.789,3.789,0,0,1,4.757,2.472l.013.042a3.788,3.788,0,0,1-.278,2.858A3.717,3.717,0,0,1,18.5,10.09,3.836,3.836,0,0,1,17.379,10.267Zm-4.8-2.326,4.807.034a1.538,1.538,0,0,0,.41-.064l.041-.013a1.437,1.437,0,0,0,.872-.707l.021-.039a1.476,1.476,0,0,0,.1-1.1,1.5,1.5,0,0,0-1.887-1,2.557,2.557,0,0,0-.469.236Z" transform="translate(8.264 2.868)" fill="#fff"/>
    <path id="패스_700" data-name="패스 700" d="M8.892,13.076a1.146,1.146,0,0,1-1.139-1.267l.889-8.354a4.794,4.794,0,0,1,.278-1.116l.006-.016A3.761,3.761,0,0,1,12.429,0a3.926,3.926,0,0,1,1.463.283L13.927.3a3.759,3.759,0,0,1,2,2.065,3.7,3.7,0,0,1-.035,2.9,3.709,3.709,0,0,1-.567.942l-.031.037L9.761,12.677A1.146,1.146,0,0,1,8.892,13.076Zm2.028-9.37-.5,4.691,3.128-3.635a1.407,1.407,0,0,0,.223-.359l.019-.045a1.424,1.424,0,0,0,.023-1.117q-.01-.024-.019-.048a1.45,1.45,0,0,0-.771-.788,1.641,1.641,0,0,0-.594-.112,1.5,1.5,0,0,0-1.147.517,1.477,1.477,0,0,0-.236.386A2.53,2.53,0,0,0,10.92,3.705Z" transform="translate(8.264 0)" fill="#fff"/>
    <path id="패스_701" data-name="패스 701" d="M12.081,13.076a1.146,1.146,0,0,1-.869-.4L5.671,6.243l-.009-.011a3.774,3.774,0,0,1-.59-.966,3.723,3.723,0,0,1-.037-2.9A3.772,3.772,0,0,1,7.038.3L7.076.282A3.941,3.941,0,0,1,8.54,0a3.751,3.751,0,0,1,3.5,2.322l0,.01a4.586,4.586,0,0,1,.277,1.111l.9,8.363a1.146,1.146,0,0,1-1.139,1.268ZM7.413,4.754,10.549,8.4l-.5-4.7a2.334,2.334,0,0,0-.121-.5,1.48,1.48,0,0,0-.238-.391A1.5,1.5,0,0,0,8.54,2.292a1.657,1.657,0,0,0-.6.112,1.463,1.463,0,0,0-.773.791l-.016.039a1.441,1.441,0,0,0,.021,1.123l.017.04A1.484,1.484,0,0,0,7.413,4.754Z" transform="translate(5.076 0)" fill="#fff"/>
    <path id="패스_702" data-name="패스 702" d="M6.156,10.267a3.788,3.788,0,0,1-1.122-.176A3.784,3.784,0,0,1,2.516,5.381l.013-.041A3.784,3.784,0,0,1,7.287,2.868l.024.008a4.7,4.7,0,0,1,1.037.514l6.943,4.723a1.146,1.146,0,0,1-.637,2.094l-8.491.06ZM4.709,6.047a1.468,1.468,0,0,0,.1,1.1l.022.042A1.435,1.435,0,0,0,5.7,7.9l.037.012a1.535,1.535,0,0,0,.413.065l4.81-.034-3.9-2.655a2.505,2.505,0,0,0-.468-.234,1.526,1.526,0,0,0-.443-.07A1.545,1.545,0,0,0,4.709,6.047Z" transform="translate(2.51 2.868)" fill="#fff"/>
  </g>
</svg>
