<svg xmlns="http://www.w3.org/2000/svg" width="60" height="60" viewBox="0 0 60 60">
  <g id="main_menu_ico_parking" transform="translate(-568.589 -236.886)">
    <path id="합치기_25" data-name="합치기 25" d="M2046.232,3844a19.271,19.271,0,1,1,13.624,5.643A19.15,19.15,0,0,1,2046.232,3844Zm-3.146-13.625a16.77,16.77,0,1,0,16.769-16.772A16.789,16.789,0,0,0,2043.086,3830.376ZM2054.264,3841v-21.08h7.815c2.469,0,4.224.684,5.356,1.9a7.2,7.2,0,0,1-.15,9.244,7.032,7.032,0,0,1-5.17,1.758h-5.208V3841Zm2.644-10.585h5.145c2.822,0,4.251-1.308,4.251-4.128,0-2.678-1.665-3.955-4.28-3.955h-5.116Z" transform="translate(-1461 -3563.196)" fill="#474645" stroke="rgba(0,0,0,0)" stroke-miterlimit="10" stroke-width="1"/>
    <rect id="사각형_2083" data-name="사각형 2083" width="60" height="60" transform="translate(568.589 236.886)" fill="none"/>
  </g>
</svg>
