<svg xmlns="http://www.w3.org/2000/svg" width="60" height="60" viewBox="0 0 60 60">
  <g id="main_menu_ico7_o" transform="translate(11 12.025)">
    <path id="패스_699" data-name="패스 699" d="M19.049,38.095A19.048,19.048,0,0,1,5.579,5.578,19.049,19.049,0,0,1,32.519,32.518,18.926,18.926,0,0,1,19.049,38.095Zm0-35.626a16.579,16.579,0,1,0,16.58,16.58A16.6,16.6,0,0,0,19.049,2.469Z" transform="translate(0 -1)" fill="#fff"/>
    <path id="패스_700" data-name="패스 700" d="M9.708,3.735h3.33V7.1H9.708ZM9.91,11h2.929V28.025H9.91Z" transform="translate(7.209 2.166)" fill="#fff"/>
    <rect id="사각형_977" data-name="사각형 977" width="60" height="60" transform="translate(-11 -12.025)" fill="none"/>
  </g>
</svg>
