<svg xmlns="http://www.w3.org/2000/svg" xmlns:xlink="http://www.w3.org/1999/xlink" width="70" height="70" viewBox="0 0 70 70">
  <defs>
    <clipPath id="clip-path">
      <rect id="사각형_1466" data-name="사각형 1466" width="50.264" height="43.123" fill="none"/>
    </clipPath>
  </defs>
  <g id="menu_ico_9-pet" transform="translate(9.442 9.74)">
    <g id="그룹_1551" data-name="그룹 1551" transform="translate(0 2)" clip-path="url(#clip-path)">
      <path id="패스_3286" data-name="패스 3286" d="M47.145,33.434V19.189a9.92,9.92,0,0,0-3.169-7.256L38.871,7.2a9.859,9.859,0,0,0-6.724-2.637h-.816V0h-12.4V4.564h-.816A9.86,9.86,0,0,0,11.393,7.2l-5.1,4.731A9.922,9.922,0,0,0,3.12,19.189V33.434H0v2.082H2.92l5.233,7.608h33.96l5.232-7.608h2.92V33.434ZM21.015,2.082h8.233v2.4H21.015Zm-7.751,38.96H9.247L5.452,35.525h8.289Zm1.558,0,.483-5.517H37.241l.482,5.517Zm26.2,0H39.282l-.476-5.517h6.006Zm4.045-7.608H38.625l-.64-7.428h1.395v-1H18.774l-4.3,2.052-.55,6.375H5.2V19.189a7.837,7.837,0,0,1,2.5-5.729l5.1-4.731a7.788,7.788,0,0,1,5.31-2.082h14.03a7.783,7.783,0,0,1,5.309,2.082l5.106,4.731a7.836,7.836,0,0,1,2.5,5.729Z" transform="translate(0 0)" fill="#1a1311"/>
      <path id="패스_3287" data-name="패스 3287" d="M15.12,20.521H7.875l.754,2.828a2.937,2.937,0,0,0,2.838,2.18h2.754L18.257,23.6l-2.426-5.768Z" transform="translate(0.322 0.73)" fill="#1a1311"/>
    </g>
    <rect id="사각형_1785" data-name="사각형 1785" width="70" height="70" transform="translate(-9.442 -9.74)" fill="none"/>
  </g>
</svg>
