<svg xmlns="http://www.w3.org/2000/svg" width="120" height="120" viewBox="0 0 120 120">
  <g id="floor_popup_bt_ele_o" transform="translate(-691.245 -725.591)">
    <rect id="사각형_656" data-name="사각형 656" width="120" height="120" rx="10" transform="translate(691.245 725.591)" fill="#dbdbdb"/>
    <g id="그룹_659" data-name="그룹 659" transform="translate(723.411 746.896)">
      <path id="패스_794" data-name="패스 794" d="M76.829,224.727a4.3,4.3,0,1,1-4.291,4.3A4.3,4.3,0,0,1,76.829,224.727Zm0,5.868a1.57,1.57,0,1,0-1.563-1.57A1.572,1.572,0,0,0,76.829,230.595Z" transform="translate(-38.552 -201.689)" fill="#646464"/>
      <path id="패스_795" data-name="패스 795" d="M75.443,261.131a1.364,1.364,0,0,1-1.364-1.364V243.5a1.364,1.364,0,0,1,1.364-1.364h.511a1.545,1.545,0,0,0,.36-.033,1.429,1.429,0,0,0,.027-.308V228.881a1.364,1.364,0,0,1,1.364-1.364c2.636,0,5.452,1.926,5.452,7.33a37.163,37.163,0,0,1-.571,7.642,1.364,1.364,0,0,1-2.656-.621h0a35.94,35.94,0,0,0,.5-7.021c0-2.038-.482-3.47-1.36-4.151v11.1a2.736,2.736,0,0,1-2.262,2.99v14.983A1.364,1.364,0,0,1,75.443,261.131Z" transform="translate(-35.041 -195.333)" fill="#646464"/>
      <path id="패스_796" data-name="패스 796" d="M78.562,261.131a1.364,1.364,0,0,1-1.364-1.364V244.784a2.735,2.735,0,0,1-2.262-2.991V230.7c-.878.681-1.36,2.113-1.36,4.151a35.941,35.941,0,0,0,.5,7.021,1.364,1.364,0,0,1-2.656.621,37.163,37.163,0,0,1-.571-7.642c0-5.4,2.816-7.33,5.452-7.33a1.364,1.364,0,0,1,1.364,1.364v12.912a1.429,1.429,0,0,0,.027.308,1.536,1.536,0,0,0,.357.033h.515a1.364,1.364,0,0,1,1.364,1.364v16.269A1.364,1.364,0,0,1,78.562,261.131Z" transform="translate(-42.399 -195.333)" fill="#646464"/>
      <path id="패스_797" data-name="패스 797" d="M70.619,224.727a4.3,4.3,0,1,1-4.3,4.3A4.3,4.3,0,0,1,70.619,224.727Zm0,5.868a1.57,1.57,0,1,0-1.57-1.57A1.572,1.572,0,0,0,70.619,230.595Z" transform="translate(-52.714 -201.689)" fill="#646464"/>
      <path id="패스_798" data-name="패스 798" d="M69.226,261.131a1.364,1.364,0,0,1-1.364-1.364V243.5a1.364,1.364,0,0,1,1.364-1.364h.515a1.548,1.548,0,0,0,.357-.033,1.441,1.441,0,0,0,.026-.308V228.881a1.364,1.364,0,0,1,1.364-1.364c2.636,0,5.452,1.926,5.452,7.33a36.954,36.954,0,0,1-.574,7.644,1.364,1.364,0,0,1-2.655-.626,35.942,35.942,0,0,0,.5-7.017c0-2.038-.482-3.47-1.36-4.151v11.1a2.735,2.735,0,0,1-2.262,2.991v14.983A1.364,1.364,0,0,1,69.226,261.131Z" transform="translate(-49.204 -195.333)" fill="#646464"/>
      <path id="패스_799" data-name="패스 799" d="M72.343,261.131a1.364,1.364,0,0,1-1.364-1.364V244.783a2.735,2.735,0,0,1-2.255-2.99v-11.1c-.88.681-1.363,2.113-1.363,4.153a35.727,35.727,0,0,0,.5,7.02,1.364,1.364,0,0,1-2.656.624,36.946,36.946,0,0,1-.574-7.644c0-5.4,2.818-7.33,5.455-7.33a1.364,1.364,0,0,1,1.364,1.364v12.912a1.461,1.461,0,0,0,.026.309,1.559,1.559,0,0,0,.354.032h.511a1.364,1.364,0,0,1,1.364,1.364v16.269A1.364,1.364,0,0,1,72.343,261.131Z" transform="translate(-56.56 -195.333)" fill="#646464"/>
      <path id="패스_800" data-name="패스 800" d="M89.371,229.315a1.812,1.812,0,0,1-1.285-.532l-6.7-6.7-6.7,6.7a1.818,1.818,0,0,1-2.571-2.571l7.981-7.981a1.818,1.818,0,0,1,2.571,0l7.98,7.981a1.818,1.818,0,0,1-1.285,3.1Z" transform="translate(-40.706 -217.699)" fill="#646464"/>
      <path id="패스_801" data-name="패스 801" d="M73.554,229.318a1.817,1.817,0,0,1-1.286-.532L64.284,220.8a1.818,1.818,0,0,1,2.571-2.571l6.7,6.7,6.7-6.7a1.818,1.818,0,1,1,2.571,2.57l-7.981,7.984A1.818,1.818,0,0,1,73.554,229.318Z" transform="translate(-58.566 -217.699)" fill="#646464"/>
      <path id="사각형_647" data-name="사각형 647" d="M4.216-.555H50.341a4.778,4.778,0,0,1,4.773,4.773V50.348a4.775,4.775,0,0,1-4.769,4.769H4.215A4.775,4.775,0,0,1-.555,50.348V4.216A4.776,4.776,0,0,1,4.216-.555ZM50.345,51.481a1.135,1.135,0,0,0,1.134-1.134V4.218a1.138,1.138,0,0,0-1.137-1.137H4.216A1.137,1.137,0,0,0,3.081,4.216V50.348a1.135,1.135,0,0,0,1.134,1.134Z" transform="translate(0.555 17.156)" fill="#646464"/>
    </g>
  </g>
</svg>
