<svg xmlns="http://www.w3.org/2000/svg" width="120" height="120" viewBox="0 0 120 120">
  <g id="floor_popup_bt_ele_o" transform="translate(-695.982 -730.5)">
    <rect id="사각형_656" data-name="사각형 656" width="120" height="120" rx="10" transform="translate(695.982 730.5)" fill="#dbdbdb"/>
    <g id="그룹_1370" data-name="그룹 1370" transform="translate(503.516 541.285)">
      <path id="패스_2907" data-name="패스 2907" d="M237.2,267.212H225.621a8.2,8.2,0,1,1,0-16.409h8.544l28.228-23.93a8.177,8.177,0,0,1,5.34-1.978H279.32a8.206,8.206,0,0,1,0,16.412h-8.556l-18.737,15.885a1.628,1.628,0,1,1-2.105-2.483l19.192-16.271a1.628,1.628,0,0,1,1.053-.386h9.153a4.951,4.951,0,0,0,0-9.9H267.734a4.921,4.921,0,0,0-3.218,1.192l-.012.01-28.688,24.32a1.628,1.628,0,0,1-1.053.386h-9.141a4.949,4.949,0,1,0,0,9.9H237.2a4.974,4.974,0,0,0,3.231-1.194l4.313-3.718a1.628,1.628,0,1,1,2.126,2.466l-4.318,3.722A8.236,8.236,0,0,1,237.2,267.212Z" transform="translate(0 13.084)" fill="#646464"/>
      <path id="패스_2908" data-name="패스 2908" d="M230.052,243.823a1.628,1.628,0,0,1-1.628-1.628V224.512a1.628,1.628,0,0,1,1.628-1.628c2.559,0,6.853,1.345,6.853,10.349,0,.2,0,.56,0,1,.006,1.636.011,3.145,0,3.63a1.628,1.628,0,1,1-3.254-.1c.014-.47.007-2.378,0-3.518,0-.444,0-.811,0-1.012,0-4.289-.99-5.985-1.97-6.655V242.2A1.628,1.628,0,0,1,230.052,243.823Z" transform="translate(21.313 9.193)" fill="#646464"/>
      <path id="패스_2909" data-name="패스 2909" d="M229.651,253.24a1.628,1.628,0,0,1-1.628-1.628V226.578c-.979.67-1.969,2.366-1.969,6.655a53.1,53.1,0,0,0,.733,10.351,1.628,1.628,0,0,1-3.171.737,54.319,54.319,0,0,1-.818-11.088c0-9,4.294-10.349,6.853-10.349a1.628,1.628,0,0,1,1.628,1.628v27.1A1.628,1.628,0,0,1,229.651,253.24Z" transform="translate(10.424 9.193)" fill="#646464"/>
      <path id="패스_2910" data-name="패스 2910" d="M230.96,229.962a5.914,5.914,0,1,1,5.914-5.914A5.923,5.923,0,0,1,230.96,229.962Zm0-8.571a2.658,2.658,0,1,0,2.658,2.658A2.664,2.664,0,0,0,230.96,221.39Z" transform="translate(14.764)" fill="#646464"/>
    </g>
  </g>
</svg>
