<svg xmlns="http://www.w3.org/2000/svg" width="70" height="70" viewBox="0 0 70 70">
  <g id="pop_elevator" transform="translate(-699 -501)">
    <path id="패스_3534" data-name="패스 3534" d="M368.022,1687.434h-1.891V1666.2h5.209v12.772l-2.162,8.461h0v13.66h-1.156Zm1.156-25.807h-1.156v2.964h1.156Zm10.613,0h-1.136v2.964h1.136Zm-1.142,39.467h1.142v-13.667h3.682l-2.149-8.49V1666.2h-3.931l-1.275,3.881v17.353h2.53Zm12.243-43.722v47.984H356.882v-47.984Zm-1.987,1.96H358.862v44.043H388.9Zm-20.419-7.238,2.083,2.483,1.52-1.261-3.6-4.275-3.6,4.275,1.507,1.261Zm14.405-1.371-1.513-1.261-2.089,2.49-2.083-2.49-1.507,1.261,3.59,4.289Z" transform="translate(360.613 -1142.24)" fill="#fff"/>
    <rect id="사각형_1788" data-name="사각형 1788" width="70" height="70" transform="translate(699 501)" fill="none" opacity="0.5"/>
  </g>
</svg>
